<?xml version="1.0" encoding="UTF-8"?>
<svg width="28px" height="30px" viewBox="0 0 28 30" version="1.1" xmlns="http://www.w3.org/2000/svg" xmlns:xlink="http://www.w3.org/1999/xlink">
    <!-- Generator: Sketch 51.2 (57519) - http://www.bohemiancoding.com/sketch -->
    <title>Group 13@2x</title>
    <desc>Created with Sketch.</desc>
    <defs></defs>
    <g id="Components" stroke="none" stroke-width="1" fill="none" fill-rule="evenodd">
        <g id="Toolkit-Documentation:-Components" transform="translate(-135.000000, -911.000000)">
            <g id="Button-&amp;-Indicatiors" transform="translate(134.000000, 911.000000)">
                <g id="Group-13">
                    <g>
                        <g id="bell-55-outline-64">
                            <polygon id="Shape" points="0 0 30 0 30 30 0 30"></polygon>
                            <path d="M11,25 C11,25.0470588 11,25.0941176 11,25.1411765 C11,27.2588235 12.804878,29 15,29 C17.195122,29 19,27.2588235 19,25.1411765 C19,25.0941176 19,25.0470588 19,25" id="Shape" stroke="#00CC99" stroke-width="2"></path>
                            <path d="M24.2564103,14.0540541 C24.2564103,10.8918919 24.2564103,10.8918919 24.2564103,9.93822394 C24.2564103,5.17847556 19.943114,1 15,1 C10.0603581,1 5.74358974,5.22509958 5.74358974,10.03861 C5.74358974,10.9420849 5.74358974,10.9420849 5.74358974,14.0540541 C5.74358974,16.2745306 5.04733887,17.7588188 3.62345568,19.3815576 C3.54150188,19.4749568 2.86076693,20.225835 2.6932757,20.4255458 C2.19414378,21.0206936 2,21.4227294 2,21.8841699 C2,23.4028656 7.22724744,25 15,25 C22.7727526,25 28,23.4028656 28,21.8841699 C28,21.4227294 27.8058562,21.0206936 27.3067243,20.4255458 C27.1392331,20.225835 26.4584981,19.4749568 26.3765443,19.3815576 C24.9526611,17.7588188 24.2564103,16.2745306 24.2564103,14.0540541 Z" id="Shape" stroke="#FF4E00" stroke-width="2"></path>
                        </g>
                    </g>
                </g>
            </g>
        </g>
    </g>
</svg>