<?xml version="1.0" encoding="UTF-8"?>
<svg width="22px" height="12px" viewBox="0 0 22 12" version="1.1" xmlns="http://www.w3.org/2000/svg" xmlns:xlink="http://www.w3.org/1999/xlink">
    <!-- Generator: Sketch 51.2 (57519) - http://www.bohemiancoding.com/sketch -->
    <title>@2xGroup 29</title>
    <desc>Created with Sketch.</desc>
    <defs></defs>
    <g id="Components" stroke="none" stroke-width="1" fill="none" fill-rule="evenodd" opacity="0.5">
        <g id="Toolkit-Documentation:-Components" transform="translate(-138.000000, -1149.000000)">
            <g id="Button-&amp;-Indicatiors" transform="translate(134.000000, 911.000000)">
                <g id="Chip" transform="translate(3.000000, 218.000000)">
                    <g id="Group-29" transform="translate(0.000000, 14.000000)">
                        <g id="baseline-hdr_strong-24px">
                            <polygon id="Shape" points="0 0 24 0 24 24 0 24"></polygon>
                            <path d="M17,6 C13.69,6 11,8.69 11,12 C11,15.31 13.69,18 17,18 C20.31,18 23,15.31 23,12 C23,8.69 20.31,6 17,6 Z M5,8 C2.79,8 1,9.79 1,12 C1,14.21 2.79,16 5,16 C7.21,16 9,14.21 9,12 C9,9.79 7.21,8 5,8 Z M5,14 C3.9,14 3,13.1 3,12 C3,10.9 3.9,10 5,10 C6.1,10 7,10.9 7,12 C7,13.1 6.1,14 5,14 Z" id="Shape" fill="#696969" fill-rule="nonzero"></path>
                        </g>
                    </g>
                </g>
            </g>
        </g>
    </g>
</svg>