<?xml version="1.0" encoding="UTF-8"?>
<svg width="92px" height="96px" viewBox="0 0 92 96" version="1.1" xmlns="http://www.w3.org/2000/svg" xmlns:xlink="http://www.w3.org/1999/xlink">
    <!-- Generator: Sketch 51.2 (57519) - http://www.bohemiancoding.com/sketch -->
    <title>@2xGroup 12</title>
    <desc>Created with Sketch.</desc>
    <defs></defs>
    <g id="Principles" stroke="none" stroke-width="1" fill="none" fill-rule="evenodd">
        <g id="Toolkit-Documentation:-Principles" transform="translate(-735.000000, -3541.000000)">
            <g id="Our-performance-improvement-platforms-position-members-for-success" transform="translate(135.000000, 2893.000000)">
                <g id="Evolve-strategies-to-grow-&amp;-compete" transform="translate(600.000000, 651.000000)">
                    <g id="Group-12">
                        <g id="Group">
                            <rect id="Rectangle" x="0" y="0" width="90" height="90"></rect>
                            <path d="M36,0 C20.098986,0 3,10.4239078 3,28 C3,28 3,38 3,58 L12,58 L12,72.3298368 C12,75.4432789 13.3332948,77 15.9998845,77 C15.9998845,77 21.6665897,77 33,77 L33,90 L68,90 L68,64" id="Path-3" stroke="#00CC99" stroke-width="6" stroke-linecap="round" stroke-linejoin="round"></path>
                            <path d="M85.644515,13.4128948 C81.1714896,8.97389504 73.918812,8.80890423 69.4457866,13.247904 C68.8950108,13.7944902 68.4148717,14.7378825 67.999642,15.35741 C67.5844124,14.7378825 67.1042733,13.7944902 66.5534975,13.247904 C62.080472,8.80890423 54.8277945,8.97389504 50.3547691,13.4128948 C45.8817436,17.8518945 45.8817436,25.049402 50.3547691,29.4893491 L67.999642,47 L85.644515,29.4893491 C90.118495,25.049402 90.118495,17.8518945 85.644515,13.4128948 Z" id="Shape" stroke="#FF4E00" stroke-width="6" stroke-linecap="round" stroke-linejoin="round"></path>
                        </g>
                    </g>
                </g>
            </g>
        </g>
    </g>
</svg>