<?xml version="1.0" encoding="UTF-8"?>
<svg width="30px" height="30px" viewBox="0 0 30 30" version="1.1" xmlns="http://www.w3.org/2000/svg" xmlns:xlink="http://www.w3.org/1999/xlink">
    <!-- Generator: Sketch 52.2 (67145) - http://www.bohemiancoding.com/sketch -->
    <title>@2xwebpage</title>
    <desc>Created with Sketch.</desc>
    <g id="Components" stroke="none" stroke-width="1" fill="none" fill-rule="evenodd">
        <g id="Toolkit-Documentation:-Components" transform="translate(-537.000000, -1725.000000)">
            <g id="Pages" transform="translate(537.000000, 1725.000000)">
                <g id="webpage">
                    <g>
                        <rect id="Rectangle" x="0" y="0" width="30" height="30"></rect>
                        <g id="world" stroke-width="2">
                            <path d="M7.40227273,2.7075 C8.34863636,3.40704545 9.07477273,5.18522727 9.07477273,5.18522727 C9.07477273,5.18522727 9.89227273,5.75318182 10.1479545,6.47727273 C10.4036364,7.20136364 10.1622727,8.18590909 10.1622727,8.18590909 C10.1622727,8.18590909 10.8863636,10.3125 10.5454545,10.9090909 C10.2045455,11.5056818 8.75568182,11.8895455 8.75568182,11.8895455 C8.75568182,11.8895455 8.15909091,12.9975 6.92295455,13.2109091 C6.11363636,13.2954545 5.30363636,13.8490909 5.30363636,15 C5.30363636,16.1509091 6.45454545,18.0259091 6.45454545,18.0259091 C6.45454545,18.0259091 7.64772727,18.6095455 7.81818182,19.0356818 C7.98863636,19.4618182 8.04659091,20.4545455 8.04659091,20.4545455 C8.04659091,20.4545455 9.18181818,22.4577273 8.54227273,23.6079545 C8.33840909,23.9747727 7.39136364,24.2475 7.39136364,24.2475 L6.06386364,26.2384091" id="Path" stroke="#01ADAB"></path>
                            <path d="M26.8377273,6.78659091 C25.3902273,7.48068182 22.8586364,8.05954545 22.8586364,8.05954545 C22.8586364,8.05954545 21.0088636,10.1186364 19.7938636,9.94818182 C18.5788636,9.77772727 17.3434091,8.41409091 17.3434091,8.41409091 C17.3434091,8.41409091 17.4286364,5.90090909 17.0454545,5.77272727 C16.6622727,5.64454545 15.6395455,6.32636364 15,5.815 C14.3604545,5.30363636 14.7293182,3.86227273 14.7293182,3.86227273 C14.7293182,3.86227273 13.3377273,3.42863636 13.1672727,2.95954545 C12.9968182,2.49045455 13.6738636,1.44659091 13.8027273,1.04636364" id="Path" stroke="#01ADAB"></path>
                            <path d="M25.9943182,15.9804545 C26.3352273,16.7904545 25.3540909,18.8577273 24.5454545,19.2613636 C23.4743182,19.7959091 22.7440909,20.4668182 22.4454545,20.9359091 C22.1468182,21.405 21.7547727,23.3386364 20.775,23.7225 C19.7952273,24.1056818 17.4715909,26.2929545 16.2361364,25.9520455 C15.0006818,25.6111364 15,22.6704545 15.8522727,21.3490909 C16.3609091,20.5602273 15.7670455,18.8345455 15.7240909,18.2386364 C15.6811364,17.6427273 13.8920455,16.5340909 13.8913636,15.9375 C13.8913636,15 15.9368182,12.5284091 15.9368182,12.5284091 C15.9368182,12.5284091 17.6127273,11.9747727 18.1240909,12.1022727 C18.6354545,12.2297727 19.6015909,12.8263636 19.6015909,12.8263636 C19.6015909,12.8263636 21.5188636,12.9968182 22.2436364,13.38 L23.2240909,14.2745455 C23.2240909,14.2759091 25.6534091,15.1704545 25.9943182,15.9804545 Z" id="Path" stroke="#01ADAB"></path>
                            <circle id="Oval" stroke="#FF4E00" cx="15" cy="15" r="14"></circle>
                        </g>
                    </g>
                </g>
            </g>
        </g>
    </g>
</svg>