<?xml version="1.0" encoding="UTF-8"?>
<svg width="99px" height="96px" viewBox="0 0 99 96" version="1.1" xmlns="http://www.w3.org/2000/svg" xmlns:xlink="http://www.w3.org/1999/xlink">
    <!-- Generator: Sketch 51.2 (57519) - http://www.bohemiancoding.com/sketch -->
    <title>@2xGroup 10</title>
    <desc>Created with Sketch.</desc>
    <defs></defs>
    <g id="Principles" stroke="none" stroke-width="1" fill="none" fill-rule="evenodd">
        <g id="Toolkit-Documentation:-Principles" transform="translate(-732.000000, -3247.000000)">
            <g id="Our-performance-improvement-platforms-position-members-for-success" transform="translate(135.000000, 2893.000000)">
                <g id="Improve-care-delivery" transform="translate(600.000000, 357.000000)">
                    <g id="Group-10">
                        <g id="doctor-outline-64">
                            <rect id="Rectangle" x="0" y="0" width="90" height="90"></rect>
                            <path d="M27,60 L27,66 C27,79.2 37.8,90 51,90 L54,90 C67.2,90 78,79.2 78,66" id="Shape" stroke="#00CC99" stroke-width="6" stroke-linecap="round" stroke-linejoin="round"></path>
                            <path d="M42,3 L53.55,3 C55.35,3 56.85,4.65 56.55,6.45 L48.9,54.9 C48.45,57.75 45.9,60 42.9,60 L14.1,60 C11.1,60 8.7,57.9 8.1,54.9 L0.6,6.45 C0.3,4.65 1.65,3 3.45,3 L15,3" id="Shape" stroke="#00CC99" stroke-width="6" stroke-linecap="round" stroke-linejoin="round"></path>
                            <path d="M15,0 L15,9" id="Shape" stroke="#00CC99" stroke-width="6" stroke-linecap="round" stroke-linejoin="round"></path>
                            <path d="M42,0 L42,9" id="Shape" stroke="#00CC99" stroke-width="6" stroke-linecap="round" stroke-linejoin="round"></path>
                            <path d="M90.603225,42.3982504 C87.4082069,39.2789533 82.2277229,39.1630138 79.0327047,42.2823109 C78.6392934,42.6663985 78.2963369,43.3293228 77.9997443,43.7646665 C77.7031517,43.3293228 77.3601952,42.6663985 76.9667839,42.2823109 C73.7717657,39.1630138 68.5912818,39.2789533 65.3962636,42.3982504 C62.2012455,45.5175475 62.2012455,50.5752555 65.3962636,53.6952183 L77.9997443,66 L90.603225,53.6952183 C93.798925,50.5752555 93.798925,45.5175475 90.603225,42.3982504 Z" id="Shape" stroke="#FF4E00" stroke-width="6" stroke-linecap="round" stroke-linejoin="round"></path>
                        </g>
                    </g>
                </g>
            </g>
        </g>
    </g>
</svg>