<?xml version="1.0" encoding="UTF-8"?>
<svg width="201px" height="52px" viewBox="0 0 201 52" version="1.1" xmlns="http://www.w3.org/2000/svg" xmlns:xlink="http://www.w3.org/1999/xlink">
    <!-- Generator: Sketch 51.3 (57544) - http://www.bohemiancoding.com/sketch -->
    <title>@2xGroup</title>
    <desc>Created with Sketch.</desc>
    <defs></defs>
    <g id="Documentation" stroke="none" stroke-width="1" fill="none" fill-rule="evenodd">
        <g id="Toolkit-Documentation---Login" transform="translate(-652.000000, -540.000000)" fill="#FF4D00">
            <g id="Example" transform="translate(352.000000, 305.000000)">
                <g id="Ex2" transform="translate(0.000000, 147.000000)">
                    <g id="Content">
                        <g id="Login" transform="translate(176.000000, 56.000000)">
                            <g id="Group" transform="translate(124.000000, 32.000000)">
                                <path d="M81.9332578,51.2840886 C82.7590343,51.2840886 83.1710851,50.8538825 83.1710851,49.9945691 L83.1710851,45.483723 C83.1710851,44.6244096 82.7590343,44.1947529 81.9332578,44.1947529 L64.7572174,44.1931046 C66.4098872,40.0712573 76.9864152,30.0353116 80.624522,24.3168116 C81.9762495,22.1927031 82.6624425,20.5520958 82.6624425,19.4818 C82.6624425,18.2406306 82.057208,15.4709382 77.78595,15.4709382 L57.6200291,15.4709382 C56.7959276,15.4709382 56.3827601,15.9011443 56.3827601,16.7604577 L56.3827601,21.2015257 C56.3827601,22.0602897 56.7959276,22.4904959 57.6200291,22.4904959 L72.9820411,22.4899464 C72.210423,23.955834 62.0191456,34.6615386 58.2431303,41.0410067 C57.2504118,42.7178767 55.8774675,45.3804296 55.8774675,47.4160794 C55.8774675,49.9945691 57.4296371,51.2840886 60.5356512,51.2840886 L81.9332578,51.2840886 Z M126.478849,27.8623036 C126.478849,25.0640407 124.705579,20.9108756 119.405311,20.9108756 C117.416524,20.9108756 112.221223,21.6718405 111.412754,29.5095041 L124.950688,29.5095041 C125.96909,29.5095041 126.478849,28.9617193 126.478849,27.8623036 Z M126.187957,36.0274294 L111.048162,36.0274294 C111.048162,40.7739822 114.379185,44.9809917 119.782187,44.9809917 C123.081384,44.9809917 126.04279,43.8590493 128.662495,41.6135161 C129.53908,40.750906 130.171114,41.7305453 130.191773,41.7574675 C130.191773,41.7574675 132.748944,45.3194425 133.10237,45.8040426 C133.194495,45.9611804 133.321795,46.3413882 132.738894,46.9144469 C129.292296,50.3060977 124.901555,52 119.563878,52 C108.552407,52 102.897039,43.1502805 102.897039,33.0912587 C102.897039,21.0086747 110.764528,14.2533943 119.710162,14.2533943 C127.410709,14.2533943 134.121888,20.0394747 134.121888,28.077132 C134.121888,33.376964 131.475383,36.0274294 126.187957,36.0274294 Z M196.701122,22.1322655 C197.526898,22.1322655 197.938949,21.7020593 197.938949,20.8427459 L197.938949,16.7500185 C197.938949,15.8907051 197.526898,15.4709382 196.701122,15.4709382 L187.821372,15.4709382 L187.821372,7.10087381 C187.821372,6.28991051 187.384754,5.88332999 186.512078,5.88332999 L180.834376,5.88332999 C179.960582,5.88332999 179.523965,6.28991051 179.523965,7.10087381 L179.523965,15.4709382 L174.793198,15.4709382 C173.969096,15.4709382 173.555929,15.8907051 173.555929,16.7500185 L173.555929,20.8427459 C173.555929,21.7020593 173.969096,22.1322655 174.793198,22.1322655 L179.523965,22.131716 L179.523965,39.3223799 C179.523965,44.4381518 181.464177,47.2485023 182.43512,48.3468191 C183.404947,49.4456854 185.87446,51.8692349 190.878253,51.856598 C195.339344,51.8450599 199.012068,49.4209609 200.559212,47.8451866 C201.169472,47.2232283 201.065622,46.8677451 200.731738,46.4397367 C200.637937,46.3188614 197.866366,42.760183 197.866366,42.760183 C197.45934,42.2052555 196.756955,42.2376721 196.337646,42.616781 C195.341578,43.4238982 193.219907,45.2150502 190.351185,44.165633 C188.265248,43.4024703 187.821372,41.112433 187.821372,39.3938062 L187.821372,22.1322655 L196.701122,22.1322655 Z M139.725891,50.0659954 C139.725891,50.878607 140.162508,51.2840886 141.035743,51.2840886 L146.713445,51.2840886 C147.587239,51.2840886 148.023856,50.878607 148.023856,50.0659954 L148.023856,23.0635546 C149.718959,21.9306235 155.018669,20.1724375 158.870618,22.4009383 C161.207247,23.7536426 162.088299,27.4392401 162.070991,31.7297634 L162.070432,50.0659954 C162.070432,50.878607 162.507608,51.2840886 163.380285,51.2840886 L169.058545,51.2840886 C169.931222,51.2840886 170.368956,50.878607 170.368956,50.0659954 L170.368956,31.1567047 C170.368956,19.9834325 165.175888,14.338007 154.792544,14.2533943 C149.763068,14.2121868 144.192007,16.1104783 141.25461,18.6224866 C140.241791,19.4889427 139.726449,20.5328656 139.726449,21.7740351 L139.725891,50.0659954 Z M95.5454498,15.4709382 L89.8677476,15.4709382 C88.9945126,15.4709382 88.5578951,15.8775187 88.5578951,16.6890314 L88.5578951,50.0659954 C88.5578951,50.878607 88.9945126,51.2840886 89.8677476,51.2840886 L95.5454498,51.2840886 C96.4186848,51.2840886 96.8558606,50.878607 96.8558606,50.0659954 L96.8558606,16.6890314 C96.8558606,15.8775187 96.4186848,15.4709382 95.5454498,15.4709382 Z M48.1624031,15.4709382 L42.4847009,15.4709382 C41.6114659,15.4709382 41.1748484,15.8775187 41.1748484,16.6890314 L41.1748484,50.0659954 C41.1748484,50.878607 41.6114659,51.2840886 42.4847009,51.2840886 L48.1624031,51.2840886 C49.0356381,51.2840886 49.4722556,50.878607 49.4722556,50.0659954 L49.4722556,16.6890314 C49.4722556,15.8775187 49.0356381,15.4709382 48.1624031,15.4709382 Z M92.7068779,0 C89.9330727,0 87.6846602,2.21256723 87.6846602,4.94270046 C87.6846602,7.67173484 89.9330727,9.88430206 92.7068779,9.88430206 C95.4801247,9.88430206 97.7290956,7.67173484 97.7290956,4.94270046 C97.7290956,2.21256723 95.4801247,0 92.7068779,0 Z M45.3232728,0 C42.5494677,0 40.3010551,2.21256723 40.3010551,4.94270046 C40.3010551,7.67173484 42.5494677,9.88430206 45.3232728,9.88430206 C48.097078,9.88430206 50.3454905,7.67173484 50.3454905,4.94270046 C50.3454905,2.21256723 48.097078,0 45.3232728,0 Z M14.0386812,49.7797407 C4.44537996,38.6482254 0.0663634597,16.910453 0.0194633722,16.65167 C-0.0760118058,16.1242142 0.160721969,15.4709382 1.15567382,15.4709382 L7.34257703,15.4709382 C7.9723782,15.4709382 8.37158728,15.7797196 8.5067042,16.4022273 C10.9929672,27.8194478 15.7650511,38.7520683 18.0419386,41.8294433 C20.3188262,38.7520683 25.0903518,27.8194478 27.5771731,16.4022273 C27.71229,15.7797196 28.1114991,15.4709382 28.7413003,15.4709382 L34.9282035,15.4709382 C35.9231553,15.4709382 36.1598891,16.1242142 36.0644139,16.65167 C36.0180722,16.910453 31.6384973,38.6482254 22.0451961,49.7797407 C20.9759858,51.0203607 19.6990751,51.6417696 18.0413803,51.6417696 C16.3848022,51.6417696 15.1078915,51.0203607 14.0386812,49.7797407 Z" id="Logo"></path>
                            </g>
                        </g>
                    </g>
                </g>
            </g>
        </g>
    </g>
</svg>