<?xml version="1.0" encoding="UTF-8"?>
<svg width="96px" height="96px" viewBox="0 0 96 96" version="1.1" xmlns="http://www.w3.org/2000/svg" xmlns:xlink="http://www.w3.org/1999/xlink">
    <!-- Generator: Sketch 51.2 (57519) - http://www.bohemiancoding.com/sketch -->
    <title>@2xGroup 11</title>
    <desc>Created with Sketch.</desc>
    <defs></defs>
    <g id="Principles" stroke="none" stroke-width="1" fill="none" fill-rule="evenodd">
        <g id="Toolkit-Documentation:-Principles" transform="translate(-132.000000, -3541.000000)">
            <g id="Our-performance-improvement-platforms-position-members-for-success" transform="translate(135.000000, 2893.000000)">
                <g id="Maximize-pharmacy-performance" transform="translate(0.000000, 651.000000)">
                    <g id="Group-11">
                        <g id="patch-outline-64">
                            <rect id="Rectangle" x="0" y="0" width="90" height="90"></rect>
                            <g id="Group-3" stroke="#00CC99" stroke-linecap="square" stroke-width="6">
                                <path d="M45,90 C34,90 25,81.9 25,72 L25,18 C25,8.1 34,0 45,0 C56,0 65,8.1 65,18 L65,72 C65,81.9 56,90 45,90 Z" id="Shape"></path>
                                <path d="M0,45 C0,34 8.1,25 18,25 L72,25 C81.9,25 90,34 90,45 C90,56 81.9,65 72,65 L18,65 C8.1,65 0,56 0,45 Z" id="Shape"></path>
                            </g>
                            <path d="M55.922795,35.2137696 C53.1537793,32.3344184 48.6640265,32.2273973 45.8950108,35.1067485 C45.5540543,35.4612909 45.2568253,36.0732211 44.9997784,36.4750767 C44.7427315,36.0732211 44.4455025,35.4612909 44.104546,35.1067485 C41.3355303,32.2273973 36.8457775,32.3344184 34.0767618,35.2137696 C31.3077461,38.0931208 31.3077461,42.7617743 34.0767618,45.6417399 L44.9997784,57 L55.922795,45.6417399 C58.6924017,42.7617743 58.6924017,38.0931208 55.922795,35.2137696 Z" id="Shape" stroke="#FF4E00" stroke-width="6" fill="#FFFFFF" stroke-linecap="round" stroke-linejoin="round"></path>
                        </g>
                    </g>
                </g>
            </g>
        </g>
    </g>
</svg>