<?xml version="1.0" encoding="UTF-8"?>
<svg width="18px" height="18px" viewBox="0 0 18 18" version="1.1" xmlns="http://www.w3.org/2000/svg" xmlns:xlink="http://www.w3.org/1999/xlink">
    <!-- Generator: Sketch 51.2 (57519) - http://www.bohemiancoding.com/sketch -->
    <title>@2xGroup 39</title>
    <desc>Created with Sketch.</desc>
    <defs></defs>
    <g id="Components" stroke="none" stroke-width="1" fill="none" fill-rule="evenodd" opacity="0.5">
        <g id="Toolkit-Documentation:-Components" transform="translate(-940.000000, -1170.000000)">
            <g id="Data-Table" transform="translate(934.000000, 911.000000)">
                <g id="No-Data" transform="translate(3.000000, 242.000000)">
                    <g id="Group-39" transform="translate(0.000000, 14.000000)">
                        <g id="baseline-report-24px">
                            <path d="M15.73,3 L8.27,3 L3,8.27 L3,15.73 L8.27,21 L15.73,21 L21,15.73 L21,8.27 L15.73,3 Z M12,17.3 C11.28,17.3 10.7,16.72 10.7,16 C10.7,15.28 11.28,14.7 12,14.7 C12.72,14.7 13.3,15.28 13.3,16 C13.3,16.72 12.72,17.3 12,17.3 Z M13,13 L11,13 L11,7 L13,7 L13,13 Z" id="Shape" fill="#696969" fill-rule="nonzero"></path>
                            <polygon id="Shape" points="0 0 24 0 24 24 0 24"></polygon>
                        </g>
                    </g>
                </g>
            </g>
        </g>
    </g>
</svg>