<?xml version="1.0" encoding="UTF-8"?>
<svg width="96px" height="96px" viewBox="0 0 96 96" version="1.1" xmlns="http://www.w3.org/2000/svg" xmlns:xlink="http://www.w3.org/1999/xlink">
    <!-- Generator: Sketch 51.2 (57519) - http://www.bohemiancoding.com/sketch -->
    <title>@2xGroup 9</title>
    <desc>Created with Sketch.</desc>
    <defs></defs>
    <g id="Principles" stroke="none" stroke-width="1" fill="none" fill-rule="evenodd">
        <g id="Toolkit-Documentation:-Principles" transform="translate(-132.000000, -3247.000000)">
            <g id="Our-performance-improvement-platforms-position-members-for-success" transform="translate(135.000000, 2893.000000)">
                <g id="Optimize-supply-operations" transform="translate(0.000000, 357.000000)">
                    <g id="Group-9">
                        <g id="refresh-02-outline-64">
                            <rect id="Rectangle" x="0" y="0" width="90" height="90"></rect>
                            <path d="M0,45 C0,20.1471429 20.1471429,0 45,0 C57.0166071,0 67.9339286,4.71053571 76.005,12.38625" id="Shape" stroke="#00CC99" stroke-width="6" stroke-linecap="round" stroke-linejoin="round"></path>
                            <path d="M90,45 C90,69.8528571 69.8528571,90 45,90 C32.9833929,90 22.0660714,85.2894643 13.995,77.61375" id="Shape" stroke="#00CC99" stroke-width="6" stroke-linecap="round" stroke-linejoin="round"></path>
                            <polygon id="Shape" stroke="#00CC99" stroke-width="6" stroke-linecap="round" stroke-linejoin="round" points="62.6785714 25.7142857 86.7857143 1.60714286 90 28.9285714"></polygon>
                            <polygon id="Shape" stroke="#00CC99" stroke-width="6" stroke-linecap="round" stroke-linejoin="round" points="27.3214286 64.2857143 3.21428571 88.3928571 0 61.0714286"></polygon>
                            <path d="M61.8043,36.228414 C57.5442758,32.0293602 50.6369638,31.8732878 46.3769396,36.0723416 C45.8523912,36.5893826 45.3951159,37.4817807 44.9996591,38.0678202 C44.6042023,37.4817807 44.146927,36.5893826 43.6223785,36.0723416 C39.3623543,31.8732878 32.4550424,32.0293602 28.1950182,36.228414 C23.9349939,40.4274678 23.9349939,47.2359208 28.1950182,51.4358707 L44.9996591,68 L61.8043,51.4358707 C66.0652333,47.2359208 66.0652333,40.4274678 61.8043,36.228414 Z" id="Shape" stroke="#FF4E00" stroke-width="6" stroke-linecap="round" stroke-linejoin="round"></path>
                        </g>
                    </g>
                </g>
            </g>
        </g>
    </g>
</svg>