<?xml version="1.0" encoding="UTF-8"?>
<svg width="24px" height="24px" viewBox="0 0 24 24" version="1.1" xmlns="http://www.w3.org/2000/svg" xmlns:xlink="http://www.w3.org/1999/xlink">
    <!-- Generator: Sketch 53.2 (72643) - https://sketchapp.com -->
    <title>@2xicn_paginator</title>
    <desc>Created with Sketch.</desc>
    <g id="Components" stroke="none" stroke-width="1" fill="none" fill-rule="evenodd">
        <g id="Toolkit-Documentation:-Components" transform="translate(-137.000000, -1905.000000)">
            <g id="Data-Table" transform="translate(137.000000, 1825.000000)">
                <g id="Paginator" transform="translate(0.000000, 66.000000)">
                    <g id="icn_paginator" transform="translate(0.000000, 14.000000)">
                        <path d="M1,1 L1,23 L23,23 L23,1 L1,1 Z" id="Shape" stroke="#018DAB" stroke-width="2"></path>
                        <path d="M5.18896484,10.0429688 L5.41113281,8.48779297 C5.75813976,8.33968025 6.16544363,8.21378633 6.63305664,8.11010742 C7.10066966,8.00642852 7.55875427,7.95458984 8.00732422,7.95458984 C8.47705313,7.95458984 8.90657357,8.00219679 9.29589844,8.09741211 C9.6852233,8.19262743 10.0205878,8.33968 10.302002,8.53857422 C10.5834161,8.73746844 10.8024081,8.99243009 10.9589844,9.3034668 C11.1155607,9.61450351 11.1938477,9.99218528 11.1938477,10.4365234 L11.1938477,10.5507812 C11.1938477,10.8723974 11.15682,11.1569812 11.0827637,11.404541 C11.0087073,11.6521008 10.8923348,11.8753245 10.7336426,12.0742188 C10.5749504,12.273113 10.3697115,12.4550773 10.1179199,12.6201172 C9.8661283,12.7851571 9.56250178,12.9374993 9.20703125,13.0771484 L8.28027344,13.4643555 C7.86555782,13.6378589 7.57991615,13.8505033 7.42333984,14.1022949 C7.26676354,14.3540865 7.18847656,14.7042621 7.18847656,15.152832 L7.18847656,15.4638672 L11.2827148,15.4638672 L11.0795898,17 L5.27783203,17 L5.27783203,15.4257812 C5.27783203,15.0787743 5.30216447,14.7476416 5.35083008,14.432373 C5.39949569,14.1171045 5.49470958,13.8208835 5.63647461,13.5437012 C5.77823964,13.2665188 5.97924675,13.0126151 6.23950195,12.7819824 C6.49975716,12.5513498 6.83935337,12.3492847 7.25830078,12.1757812 L8.19140625,11.7885742 C8.42415481,11.691243 8.61246673,11.597087 8.75634766,11.5061035 C8.90022858,11.41512 9.01131146,11.3199061 9.08959961,11.220459 C9.16788776,11.1210119 9.21972644,11.0215663 9.24511719,10.9221191 C9.27050794,10.822672 9.28320312,10.7115892 9.28320312,10.5888672 C9.28320312,10.1995423 9.16894646,9.92236411 8.94042969,9.75732422 C8.71191292,9.59228433 8.33740495,9.50976562 7.81689453,9.50976562 C7.37678816,9.50976562 6.92187735,9.56266223 6.45214844,9.66845703 C5.98241953,9.77425183 5.56136254,9.89908782 5.18896484,10.0429688 Z M12.5839844,16.7143555 L12.8696289,15.2290039 C13.2420266,15.3432623 13.6302877,15.4289548 14.0344238,15.486084 C14.43856,15.5432132 14.8141259,15.5717773 15.1611328,15.5717773 C15.7493519,15.5717773 16.1672351,15.4670421 16.4147949,15.2575684 C16.6623548,15.0480947 16.7861328,14.7233095 16.7861328,14.2832031 C16.7861328,14.0166002 16.7448735,13.7965503 16.6623535,13.6230469 C16.5798336,13.4495434 16.4602872,13.3173019 16.3037109,13.2263184 C16.1471346,13.1353348 15.9514172,13.0718589 15.7165527,13.0358887 C15.4816883,12.9999184 15.2140315,12.9819336 14.9135742,12.9819336 L13.0410156,12.9819336 L13.1806641,8.08154297 L18.2651367,8.08154297 L18.0556641,9.61767578 L14.8881836,9.61767578 L14.8310547,11.4331055 L15.5737305,11.4331055 C16.1365588,11.4331055 16.6179179,11.4944655 17.0178223,11.6171875 C17.4177266,11.7399095 17.7403959,11.9155262 17.9858398,12.144043 C18.2312838,12.3725597 18.4111322,12.6560855 18.5253906,12.9946289 C18.639649,13.3331723 18.6967773,13.7182596 18.6967773,14.1499023 L18.6967773,14.359375 C18.6967773,14.765627 18.6290697,15.1380191 18.4936523,15.4765625 C18.358235,15.8151059 18.1498224,16.1081531 17.8684082,16.3557129 C17.586994,16.6032727 17.2315288,16.7937005 16.802002,16.927002 C16.3724751,17.0603034 15.859378,17.1269531 15.2626953,17.1269531 C15.0891918,17.1269531 14.8903006,17.1206055 14.6660156,17.1079102 C14.4417306,17.0952148 14.2100435,17.0719403 13.9709473,17.0380859 C13.731851,17.0042316 13.4927584,16.9608564 13.2536621,16.907959 C13.0145659,16.8550616 12.7913422,16.7905277 12.5839844,16.7143555 Z" id="↳-1-to-2-Characters" fill="#018DAB"></path>
                    </g>
                </g>
            </g>
        </g>
    </g>
</svg>