<?xml version="1.0" encoding="UTF-8"?>
<svg width="24px" height="14px" viewBox="0 0 24 14" version="1.1" xmlns="http://www.w3.org/2000/svg" xmlns:xlink="http://www.w3.org/1999/xlink">
    <!-- Generator: Sketch 51.3 (57544) - http://www.bohemiancoding.com/sketch -->
    <title>@2xGroup 8</title>
    <desc>Created with Sketch.</desc>
    <defs></defs>
    <g id="Components" stroke="none" stroke-width="1" fill="none" fill-rule="evenodd" opacity="0.5">
        <g id="Toolkit-Documentation:-Components" transform="translate(-137.000000, -1164.000000)">
            <g id="Form-Controls" transform="translate(134.000000, 575.000000)">
                <g id="Slide-Toggle" transform="translate(3.000000, 570.000000)">
                    <g id="Group-8" transform="translate(0.000000, 14.000000)">
                        <g id="Group">
                            <polygon id="Shape" points="0 0 24 0 24 24 0 24"></polygon>
                            <path d="M18,6 L6,6 C3.27743704,6 1,8.65700988 1,12 C1,15.3429901 3.27743704,18 6,18 L18,18 C20.722563,18 23,15.3429901 23,12 C23,8.65700988 20.722563,6 18,6 Z" id="Shape" stroke="#696969" stroke-width="2" fill-rule="nonzero"></path>
                            <path d="M7,14 C8.10771525,14 9,13.1077153 9,12 C9,10.8922847 8.10771525,10 7,10 C5.89228475,10 5,10.8922847 5,12 C5,13.1077153 5.89228475,14 7,14 Z" id="Path" stroke="#696969" stroke-width="2" fill-rule="nonzero"></path>
                        </g>
                    </g>
                </g>
            </g>
        </g>
    </g>
</svg>