<?xml version="1.0" encoding="UTF-8"?>
<svg width="20px" height="10px" viewBox="0 0 20 10" version="1.1" xmlns="http://www.w3.org/2000/svg" xmlns:xlink="http://www.w3.org/1999/xlink">
    <!-- Generator: Sketch 51.2 (57519) - http://www.bohemiancoding.com/sketch -->
    <title>@2xGroup 8</title>
    <desc>Created with Sketch.</desc>
    <defs></defs>
    <g id="Components" stroke="none" stroke-width="1" fill="none" fill-rule="evenodd" opacity="0.5">
        <g id="Toolkit-Documentation:-Components" transform="translate(-139.000000, -816.000000)">
            <g id="Form-Controls" transform="translate(134.000000, 273.000000)">
                <g id="Slide-Toggle" transform="translate(3.000000, 522.000000)">
                    <g id="Group-8" transform="translate(0.000000, 14.000000)">
                        <g id="Group">
                            <path d="M17,7 L7,7 C4.24,7 2,9.24 2,12 C2,14.76 4.24,17 7,17 L17,17 C19.76,17 22,14.76 22,12 C22,9.24 19.76,7 17,7 Z M7,15 C5.34,15 4,13.66 4,12 C4,10.34 5.34,9 7,9 C8.66,9 10,10.34 10,12 C10,13.66 8.66,15 7,15 Z" id="Shape" fill="#696969" fill-rule="nonzero"></path>
                            <polygon id="Shape" points="0 0 24 0 24 24 0 24"></polygon>
                        </g>
                    </g>
                </g>
            </g>
        </g>
    </g>
</svg>