<?xml version="1.0" encoding="UTF-8"?>
<svg width="800px" height="300px" viewBox="0 0 800 300" version="1.1" xmlns="http://www.w3.org/2000/svg" xmlns:xlink="http://www.w3.org/1999/xlink">
    <!-- Generator: Sketch 51.3 (57544) - http://www.bohemiancoding.com/sketch -->
    <title>@2xGroup</title>
    <desc>Created with Sketch.</desc>
    <defs>
        <rect id="path-1" x="0" y="0" width="800" height="300"></rect>
        <rect id="path-3" x="0" y="0" width="400" height="662"></rect>
        <filter x="-34.9%" y="-14.4%" width="169.8%" height="142.1%" filterUnits="objectBoundingBox" id="filter-5">
            <feMorphology radius="3.5" operator="erode" in="SourceAlpha" result="shadowSpreadOuter1"></feMorphology>
            <feOffset dx="0" dy="11" in="shadowSpreadOuter1" result="shadowOffsetOuter1"></feOffset>
            <feGaussianBlur stdDeviation="7.5" in="shadowOffsetOuter1" result="shadowBlurOuter1"></feGaussianBlur>
            <feColorMatrix values="0 0 0 0 0   0 0 0 0 0   0 0 0 0 0  0 0 0 0.2 0" type="matrix" in="shadowBlurOuter1" result="shadowMatrixOuter1"></feColorMatrix>
            <feMorphology radius="4" operator="dilate" in="SourceAlpha" result="shadowSpreadOuter2"></feMorphology>
            <feOffset dx="0" dy="9" in="shadowSpreadOuter2" result="shadowOffsetOuter2"></feOffset>
            <feGaussianBlur stdDeviation="23" in="shadowOffsetOuter2" result="shadowBlurOuter2"></feGaussianBlur>
            <feColorMatrix values="0 0 0 0 0   0 0 0 0 0   0 0 0 0 0  0 0 0 0.12 0" type="matrix" in="shadowBlurOuter2" result="shadowMatrixOuter2"></feColorMatrix>
            <feMorphology radius="1.5" operator="dilate" in="SourceAlpha" result="shadowSpreadOuter3"></feMorphology>
            <feOffset dx="0" dy="24" in="shadowSpreadOuter3" result="shadowOffsetOuter3"></feOffset>
            <feGaussianBlur stdDeviation="19" in="shadowOffsetOuter3" result="shadowBlurOuter3"></feGaussianBlur>
            <feColorMatrix values="0 0 0 0 0   0 0 0 0 0   0 0 0 0 0  0 0 0 0.14 0" type="matrix" in="shadowBlurOuter3" result="shadowMatrixOuter3"></feColorMatrix>
            <feMerge>
                <feMergeNode in="shadowMatrixOuter1"></feMergeNode>
                <feMergeNode in="shadowMatrixOuter2"></feMergeNode>
                <feMergeNode in="shadowMatrixOuter3"></feMergeNode>
            </feMerge>
        </filter>
        <polygon id="path-6" points="7 10 12 15 17 10"></polygon>
    </defs>
    <g id="Documentation" stroke="none" stroke-width="1" fill="none" fill-rule="evenodd">
        <g id="Toolkit-Documentation---Typography" transform="translate(-352.000000, -2706.000000)">
            <g id="Main-Content" transform="translate(352.000000, 129.000000)">
                <g id="Example-Copy" transform="translate(0.000000, 1412.000000)">
                    <g id="Group-2-Copy-2" transform="translate(0.000000, 1055.000000)">
                        <g id="Group" transform="translate(0.000000, 110.000000)">
                            <mask id="mask-2" fill="white">
                                <use xlink:href="#path-1"></use>
                            </mask>
                            <rect stroke="#EFEFEF" x="0.5" y="0.5" width="799" height="299"></rect>
                            <g id="Delete-Submission" mask="url(#mask-2)">
                                <g transform="translate(344.000000, 56.000000)">
                                    <g id="✱-/-Shadow-/-24dp">
                                        <mask id="mask-4" fill="white">
                                            <use xlink:href="#path-3"></use>
                                        </mask>
                                        <g id="Mask">
                                            <use fill="black" fill-opacity="1" filter="url(#filter-5)" xlink:href="#path-3"></use>
                                            <use fill="#FFFFFF" fill-rule="evenodd" xlink:href="#path-3"></use>
                                        </g>
                                    </g>
                                    <g id="File-Details" stroke-width="1" fill-rule="evenodd" transform="translate(24.000000, 241.000000)" font-family="SoletoTrial-Light, Soleto Trial" font-size="14" font-weight="300">
                                        <text id="File-details" fill="#696969">
                                            <tspan x="0" y="14">File details</tspan>
                                        </text>
                                    </g>
                                    <g id="Description" stroke-width="1" fill-rule="evenodd" transform="translate(24.000000, 164.000000)">
                                        <g id="text-field-">
                                            <text id="value" font-family="SoletoTrial-Regular, Soleto Trial" font-size="14" font-weight="normal" line-spacing="20" fill="#696969">
                                                <tspan x="0" y="14">Description</tspan>
                                            </text>
                                            <g id="Borders/1px" transform="translate(0.000000, 44.000000)" fill="#C3C3C3">
                                                <rect id="1px_border_bottom_" x="0" y="0" width="352" height="1"></rect>
                                            </g>
                                            <path d="M344.949747,32.9497475 L345.949747,32.9497475 L345.949747,42.9497475 L344.949747,42.9497475 L344.949747,32.9497475 Z M347.949747,35.9497475 L348.949747,35.9497475 L348.949747,39.9497475 L347.949747,39.9497475 L347.949747,35.9497475 Z" id="Combined-Shape" fill="#9F9F9F" transform="translate(346.949747, 37.949747) rotate(-315.000000) translate(-346.949747, -37.949747) "></path>
                                        </g>
                                    </g>
                                    <g id="Components-/-Dropdown-/-Active" transform="translate(24.000000, 82.000000)">
                                        <g id="✱-/-Border-/-Active" transform="translate(0.000000, 46.000000)" fill="#7F5EBA" fill-rule="evenodd">
                                            <rect id="BORDER-BOTTOM" x="0" y="0" width="352" height="2"></rect>
                                        </g>
                                        <g id="✱-/-Icon-/-Arrow-/-Down" transform="translate(328.000000, 18.000000)">
                                            <mask id="mask-7" fill="white">
                                                <use xlink:href="#path-6"></use>
                                            </mask>
                                            <g id="Shape"></g>
                                            <g id="✱-/-Icon-State-/-Normal" mask="url(#mask-7)" fill="#9F9F9F" fill-rule="evenodd">
                                                <rect id="STATE" x="0" y="0" width="24" height="24"></rect>
                                            </g>
                                        </g>
                                        <g id="✱-/-Form-Content-/-Active" transform="translate(0.000000, 18.000000)" fill="#000000" font-family="SoletoTrial-Regular, Soleto Trial" font-size="14" font-weight="normal" line-spacing="24">
                                            <text id="↳-CONTENT">
                                                <tspan x="0" y="14">Reason 1</tspan>
                                            </text>
                                        </g>
                                        <g id="✱-/-Form-Label-/-Active" fill="#7F5EBA" font-family="SoletoTrial-Regular, Soleto Trial" font-size="12" font-weight="normal" line-spacing="16">
                                            <text id="↳-CONTENT">
                                                <tspan x="0" y="12">Reason *</tspan>
                                            </text>
                                        </g>
                                    </g>
                                    <text id="Headline" font-family="SoletoTrial-Regular, Soleto Trial" font-size="20" font-weight="normal">
                                        <tspan x="24" y="51" fill="#212121">Delete Submission</tspan>
                                    </text>
                                </g>
                            </g>
                            <rect id="Rectangle" fill-opacity="0.12" fill="#000000" mask="url(#mask-2)" x="0" y="150" width="800" height="1"></rect>
                            <text id="Soleto-Regular-12" mask="url(#mask-2)" font-family=".AppleSystemUIFont" font-size="10" font-weight="normal" fill="#000000" fill-opacity="0.6">
                                <tspan x="117.316406" y="115">Soleto</tspan>
                                <tspan x="111.300781" y="127">Regular</tspan>
                                <tspan x="137.0625" y="139">12</tspan>
                            </text>
                            <g id="Dash-lines" mask="url(#mask-2)" fill="#878787">
                                <g transform="translate(156.000000, 0.000000)">
                                    <rect id="dash" transform="translate(1.000000, 2.000000) rotate(-180.000000) translate(-1.000000, -2.000000) " x="0" y="0" width="2" height="4"></rect>
                                    <rect id="dash-copy" transform="translate(1.000000, 10.000000) rotate(-180.000000) translate(-1.000000, -10.000000) " x="0" y="8" width="2" height="4"></rect>
                                    <rect id="dash-copy-2" transform="translate(1.000000, 18.000000) rotate(-180.000000) translate(-1.000000, -18.000000) " x="0" y="16" width="2" height="4"></rect>
                                    <rect id="dash-copy-3" transform="translate(1.000000, 26.000000) rotate(-180.000000) translate(-1.000000, -26.000000) " x="0" y="24" width="2" height="4"></rect>
                                    <rect id="dash-copy-4" transform="translate(1.000000, 34.000000) rotate(-180.000000) translate(-1.000000, -34.000000) " x="0" y="32" width="2" height="4"></rect>
                                    <rect id="dash-copy-5" transform="translate(1.000000, 42.000000) rotate(-180.000000) translate(-1.000000, -42.000000) " x="0" y="40" width="2" height="4"></rect>
                                    <rect id="dash-copy-6" transform="translate(1.000000, 50.000000) rotate(-180.000000) translate(-1.000000, -50.000000) " x="0" y="48" width="2" height="4"></rect>
                                    <rect id="dash-copy-7" transform="translate(1.000000, 58.000000) rotate(-180.000000) translate(-1.000000, -58.000000) " x="0" y="56" width="2" height="4"></rect>
                                    <rect id="dash-copy-8" transform="translate(1.000000, 66.000000) rotate(-180.000000) translate(-1.000000, -66.000000) " x="0" y="64" width="2" height="4"></rect>
                                    <rect id="dash-copy-9" transform="translate(1.000000, 74.000000) rotate(-180.000000) translate(-1.000000, -74.000000) " x="0" y="72" width="2" height="4"></rect>
                                    <rect id="dash-copy-10" transform="translate(1.000000, 82.000000) rotate(-180.000000) translate(-1.000000, -82.000000) " x="0" y="80" width="2" height="4"></rect>
                                    <rect id="dash-copy-11" transform="translate(1.000000, 90.000000) rotate(-180.000000) translate(-1.000000, -90.000000) " x="0" y="88" width="2" height="4"></rect>
                                    <rect id="dash-copy-12" transform="translate(1.000000, 98.000000) rotate(-180.000000) translate(-1.000000, -98.000000) " x="0" y="96" width="2" height="4"></rect>
                                    <rect id="dash-copy-13" transform="translate(1.000000, 106.000000) rotate(-180.000000) translate(-1.000000, -106.000000) " x="0" y="104" width="2" height="4"></rect>
                                    <rect id="dash-copy-14" transform="translate(1.000000, 114.000000) rotate(-180.000000) translate(-1.000000, -114.000000) " x="0" y="112" width="2" height="4"></rect>
                                    <rect id="dash-copy-15" transform="translate(1.000000, 122.000000) rotate(-180.000000) translate(-1.000000, -122.000000) " x="0" y="120" width="2" height="4"></rect>
                                    <rect id="dash-copy-16" transform="translate(1.000000, 130.000000) rotate(-180.000000) translate(-1.000000, -130.000000) " x="0" y="128" width="2" height="4"></rect>
                                    <rect id="dash-copy-17" transform="translate(1.000000, 138.000000) rotate(-180.000000) translate(-1.000000, -138.000000) " x="0" y="136" width="2" height="4"></rect>
                                    <rect id="dash-copy-18" transform="translate(1.000000, 146.000000) rotate(-180.000000) translate(-1.000000, -146.000000) " x="0" y="144" width="2" height="4"></rect>
                                    <rect id="dash-copy-19" transform="translate(1.000000, 154.000000) rotate(-180.000000) translate(-1.000000, -154.000000) " x="0" y="152" width="2" height="4"></rect>
                                    <rect id="dash-copy-20" transform="translate(1.000000, 162.000000) rotate(-180.000000) translate(-1.000000, -162.000000) " x="0" y="160" width="2" height="4"></rect>
                                    <rect id="dash-copy-21" transform="translate(1.000000, 170.000000) rotate(-180.000000) translate(-1.000000, -170.000000) " x="0" y="168" width="2" height="4"></rect>
                                    <rect id="dash-copy-22" transform="translate(1.000000, 178.000000) rotate(-180.000000) translate(-1.000000, -178.000000) " x="0" y="176" width="2" height="4"></rect>
                                    <rect id="dash-copy-23" transform="translate(1.000000, 186.000000) rotate(-180.000000) translate(-1.000000, -186.000000) " x="0" y="184" width="2" height="4"></rect>
                                    <rect id="dash-copy-24" transform="translate(1.000000, 194.000000) rotate(-180.000000) translate(-1.000000, -194.000000) " x="0" y="192" width="2" height="4"></rect>
                                    <rect id="dash-copy-25" transform="translate(1.000000, 202.000000) rotate(-180.000000) translate(-1.000000, -202.000000) " x="0" y="200" width="2" height="4"></rect>
                                    <rect id="dash-copy-26" transform="translate(1.000000, 210.000000) rotate(-180.000000) translate(-1.000000, -210.000000) " x="0" y="208" width="2" height="4"></rect>
                                    <rect id="dash-copy-27" transform="translate(1.000000, 218.000000) rotate(-180.000000) translate(-1.000000, -218.000000) " x="0" y="216" width="2" height="4"></rect>
                                    <rect id="dash-copy-28" transform="translate(1.000000, 226.000000) rotate(-180.000000) translate(-1.000000, -226.000000) " x="0" y="224" width="2" height="4"></rect>
                                    <rect id="dash-copy-29" transform="translate(1.000000, 234.000000) rotate(-180.000000) translate(-1.000000, -234.000000) " x="0" y="232" width="2" height="4"></rect>
                                    <rect id="dash-copy-30" transform="translate(1.000000, 242.000000) rotate(-180.000000) translate(-1.000000, -242.000000) " x="0" y="240" width="2" height="4"></rect>
                                    <rect id="dash-copy-31" transform="translate(1.000000, 250.000000) rotate(-180.000000) translate(-1.000000, -250.000000) " x="0" y="248" width="2" height="4"></rect>
                                    <rect id="dash-copy-32" transform="translate(1.000000, 258.000000) rotate(-180.000000) translate(-1.000000, -258.000000) " x="0" y="256" width="2" height="4"></rect>
                                    <rect id="dash-copy-33" transform="translate(1.000000, 266.000000) rotate(-180.000000) translate(-1.000000, -266.000000) " x="0" y="264" width="2" height="4"></rect>
                                    <rect id="dash-copy-34" transform="translate(1.000000, 274.000000) rotate(-180.000000) translate(-1.000000, -274.000000) " x="0" y="272" width="2" height="4"></rect>
                                    <rect id="dash-copy-35" transform="translate(1.000000, 282.000000) rotate(-180.000000) translate(-1.000000, -282.000000) " x="0" y="280" width="2" height="4"></rect>
                                    <rect id="dash-copy-36" transform="translate(1.000000, 290.000000) rotate(-180.000000) translate(-1.000000, -290.000000) " x="0" y="288" width="2" height="4"></rect>
                                    <rect id="dash-copy-37" transform="translate(1.000000, 298.000000) rotate(-180.000000) translate(-1.000000, -298.000000) " x="0" y="296" width="2" height="4"></rect>
                                    <rect id="dash-copy-38" transform="translate(1.000000, 306.000000) rotate(-180.000000) translate(-1.000000, -306.000000) " x="0" y="304" width="2" height="4"></rect>
                                    <rect id="dash-copy-39" transform="translate(1.000000, 314.000000) rotate(-180.000000) translate(-1.000000, -314.000000) " x="0" y="312" width="2" height="4"></rect>
                                    <rect id="dash-copy-40" transform="translate(1.000000, 322.000000) rotate(-180.000000) translate(-1.000000, -322.000000) " x="0" y="320" width="2" height="4"></rect>
                                    <rect id="dash-copy-41" transform="translate(1.000000, 330.000000) rotate(-180.000000) translate(-1.000000, -330.000000) " x="0" y="328" width="2" height="4"></rect>
                                    <rect id="dash-copy-42" transform="translate(1.000000, 338.000000) rotate(-180.000000) translate(-1.000000, -338.000000) " x="0" y="336" width="2" height="4"></rect>
                                    <rect id="dash-copy-43" transform="translate(1.000000, 346.000000) rotate(-180.000000) translate(-1.000000, -346.000000) " x="0" y="344" width="2" height="4"></rect>
                                    <rect id="dash-copy-44" transform="translate(1.000000, 354.000000) rotate(-180.000000) translate(-1.000000, -354.000000) " x="0" y="352" width="2" height="4"></rect>
                                    <rect id="dash-copy-45" transform="translate(1.000000, 362.000000) rotate(-180.000000) translate(-1.000000, -362.000000) " x="0" y="360" width="2" height="4"></rect>
                                    <rect id="dash-copy-46" transform="translate(1.000000, 370.000000) rotate(-180.000000) translate(-1.000000, -370.000000) " x="0" y="368" width="2" height="4"></rect>
                                    <rect id="dash-copy-47" transform="translate(1.000000, 378.000000) rotate(-180.000000) translate(-1.000000, -378.000000) " x="0" y="376" width="2" height="4"></rect>
                                    <rect id="dash-copy-48" transform="translate(1.000000, 386.000000) rotate(-180.000000) translate(-1.000000, -386.000000) " x="0" y="384" width="2" height="4"></rect>
                                    <rect id="dash-copy-49" transform="translate(1.000000, 394.000000) rotate(-180.000000) translate(-1.000000, -394.000000) " x="0" y="392" width="2" height="4"></rect>
                                    <rect id="dash-copy-50" transform="translate(1.000000, 402.000000) rotate(-180.000000) translate(-1.000000, -402.000000) " x="0" y="400" width="2" height="4"></rect>
                                    <rect id="dash-copy-51" transform="translate(1.000000, 410.000000) rotate(-180.000000) translate(-1.000000, -410.000000) " x="0" y="408" width="2" height="4"></rect>
                                    <rect id="dash-copy-52" transform="translate(1.000000, 418.000000) rotate(-180.000000) translate(-1.000000, -418.000000) " x="0" y="416" width="2" height="4"></rect>
                                    <rect id="dash-copy-53" transform="translate(1.000000, 426.000000) rotate(-180.000000) translate(-1.000000, -426.000000) " x="0" y="424" width="2" height="4"></rect>
                                    <rect id="dash-copy-54" transform="translate(1.000000, 434.000000) rotate(-180.000000) translate(-1.000000, -434.000000) " x="0" y="432" width="2" height="4"></rect>
                                    <rect id="dash-copy-55" transform="translate(1.000000, 442.000000) rotate(-180.000000) translate(-1.000000, -442.000000) " x="0" y="440" width="2" height="4"></rect>
                                    <rect id="dash-copy-56" transform="translate(1.000000, 450.000000) rotate(-180.000000) translate(-1.000000, -450.000000) " x="0" y="448" width="2" height="4"></rect>
                                    <rect id="dash-copy-57" transform="translate(1.000000, 458.000000) rotate(-180.000000) translate(-1.000000, -458.000000) " x="0" y="456" width="2" height="4"></rect>
                                    <rect id="dash-copy-58" transform="translate(1.000000, 466.000000) rotate(-180.000000) translate(-1.000000, -466.000000) " x="0" y="464" width="2" height="4"></rect>
                                    <rect id="dash-copy-59" transform="translate(1.000000, 474.000000) rotate(-180.000000) translate(-1.000000, -474.000000) " x="0" y="472" width="2" height="4"></rect>
                                    <rect id="dash-copy-60" transform="translate(1.000000, 482.000000) rotate(-180.000000) translate(-1.000000, -482.000000) " x="0" y="480" width="2" height="4"></rect>
                                    <rect id="dash-copy-61" transform="translate(1.000000, 490.000000) rotate(-180.000000) translate(-1.000000, -490.000000) " x="0" y="488" width="2" height="4"></rect>
                                    <rect id="dash-copy-62" transform="translate(1.000000, 498.000000) rotate(-180.000000) translate(-1.000000, -498.000000) " x="0" y="496" width="2" height="4"></rect>
                                    <rect id="dash-copy-63" transform="translate(1.000000, 506.000000) rotate(-180.000000) translate(-1.000000, -506.000000) " x="0" y="504" width="2" height="4"></rect>
                                    <rect id="dash-copy-64" transform="translate(1.000000, 514.000000) rotate(-180.000000) translate(-1.000000, -514.000000) " x="0" y="512" width="2" height="4"></rect>
                                    <rect id="dash-copy-65" transform="translate(1.000000, 522.000000) rotate(-180.000000) translate(-1.000000, -522.000000) " x="0" y="520" width="2" height="4"></rect>
                                    <rect id="dash-copy-66" transform="translate(1.000000, 530.000000) rotate(-180.000000) translate(-1.000000, -530.000000) " x="0" y="528" width="2" height="4"></rect>
                                    <rect id="dash-copy-67" transform="translate(1.000000, 538.000000) rotate(-180.000000) translate(-1.000000, -538.000000) " x="0" y="536" width="2" height="4"></rect>
                                    <rect id="dash" transform="translate(1.000000, 546.000000) rotate(-180.000000) translate(-1.000000, -546.000000) " x="0" y="544" width="2" height="4"></rect>
                                    <rect id="dash-copy" transform="translate(1.000000, 554.000000) rotate(-180.000000) translate(-1.000000, -554.000000) " x="0" y="552" width="2" height="4"></rect>
                                    <rect id="dash-copy-2" transform="translate(1.000000, 562.000000) rotate(-180.000000) translate(-1.000000, -562.000000) " x="0" y="560" width="2" height="4"></rect>
                                    <rect id="dash-copy-3" transform="translate(1.000000, 570.000000) rotate(-180.000000) translate(-1.000000, -570.000000) " x="0" y="568" width="2" height="4"></rect>
                                    <rect id="dash-copy-4" transform="translate(1.000000, 578.000000) rotate(-180.000000) translate(-1.000000, -578.000000) " x="0" y="576" width="2" height="4"></rect>
                                    <rect id="dash-copy-5" transform="translate(1.000000, 586.000000) rotate(-180.000000) translate(-1.000000, -586.000000) " x="0" y="584" width="2" height="4"></rect>
                                    <rect id="dash-copy-6" transform="translate(1.000000, 594.000000) rotate(-180.000000) translate(-1.000000, -594.000000) " x="0" y="592" width="2" height="4"></rect>
                                    <rect id="dash-copy-7" transform="translate(1.000000, 602.000000) rotate(-180.000000) translate(-1.000000, -602.000000) " x="0" y="600" width="2" height="4"></rect>
                                    <rect id="dash-copy-8" transform="translate(1.000000, 610.000000) rotate(-180.000000) translate(-1.000000, -610.000000) " x="0" y="608" width="2" height="4"></rect>
                                    <rect id="dash-copy-9" transform="translate(1.000000, 618.000000) rotate(-180.000000) translate(-1.000000, -618.000000) " x="0" y="616" width="2" height="4"></rect>
                                    <rect id="dash-copy-10" transform="translate(1.000000, 626.000000) rotate(-180.000000) translate(-1.000000, -626.000000) " x="0" y="624" width="2" height="4"></rect>
                                    <rect id="dash-copy-11" transform="translate(1.000000, 634.000000) rotate(-180.000000) translate(-1.000000, -634.000000) " x="0" y="632" width="2" height="4"></rect>
                                    <rect id="dash-copy-12" transform="translate(1.000000, 642.000000) rotate(-180.000000) translate(-1.000000, -642.000000) " x="0" y="640" width="2" height="4"></rect>
                                    <rect id="dash-copy-13" transform="translate(1.000000, 650.000000) rotate(-180.000000) translate(-1.000000, -650.000000) " x="0" y="648" width="2" height="4"></rect>
                                    <rect id="dash-copy-14" transform="translate(1.000000, 658.000000) rotate(-180.000000) translate(-1.000000, -658.000000) " x="0" y="656" width="2" height="4"></rect>
                                    <rect id="dash-copy-15" transform="translate(1.000000, 666.000000) rotate(-180.000000) translate(-1.000000, -666.000000) " x="0" y="664" width="2" height="4"></rect>
                                    <rect id="dash-copy-16" transform="translate(1.000000, 674.000000) rotate(-180.000000) translate(-1.000000, -674.000000) " x="0" y="672" width="2" height="4"></rect>
                                    <rect id="dash-copy-17" transform="translate(1.000000, 682.000000) rotate(-180.000000) translate(-1.000000, -682.000000) " x="0" y="680" width="2" height="4"></rect>
                                    <rect id="dash-copy-18" transform="translate(1.000000, 690.000000) rotate(-180.000000) translate(-1.000000, -690.000000) " x="0" y="688" width="2" height="4"></rect>
                                    <rect id="dash-copy-19" transform="translate(1.000000, 698.000000) rotate(-180.000000) translate(-1.000000, -698.000000) " x="0" y="696" width="2" height="4"></rect>
                                    <rect id="dash-copy-20" transform="translate(1.000000, 706.000000) rotate(-180.000000) translate(-1.000000, -706.000000) " x="0" y="704" width="2" height="4"></rect>
                                    <rect id="dash-copy-21" transform="translate(1.000000, 714.000000) rotate(-180.000000) translate(-1.000000, -714.000000) " x="0" y="712" width="2" height="4"></rect>
                                    <rect id="dash-copy-22" transform="translate(1.000000, 722.000000) rotate(-180.000000) translate(-1.000000, -722.000000) " x="0" y="720" width="2" height="4"></rect>
                                    <rect id="dash-copy-23" transform="translate(1.000000, 730.000000) rotate(-180.000000) translate(-1.000000, -730.000000) " x="0" y="728" width="2" height="4"></rect>
                                    <rect id="dash-copy-24" transform="translate(1.000000, 738.000000) rotate(-180.000000) translate(-1.000000, -738.000000) " x="0" y="736" width="2" height="4"></rect>
                                    <rect id="dash-copy-25" transform="translate(1.000000, 746.000000) rotate(-180.000000) translate(-1.000000, -746.000000) " x="0" y="744" width="2" height="4"></rect>
                                    <rect id="dash-copy-26" transform="translate(1.000000, 754.000000) rotate(-180.000000) translate(-1.000000, -754.000000) " x="0" y="752" width="2" height="4"></rect>
                                    <rect id="dash-copy-27" transform="translate(1.000000, 762.000000) rotate(-180.000000) translate(-1.000000, -762.000000) " x="0" y="760" width="2" height="4"></rect>
                                    <rect id="dash-copy-28" transform="translate(1.000000, 770.000000) rotate(-180.000000) translate(-1.000000, -770.000000) " x="0" y="768" width="2" height="4"></rect>
                                    <rect id="dash-copy-29" transform="translate(1.000000, 778.000000) rotate(-180.000000) translate(-1.000000, -778.000000) " x="0" y="776" width="2" height="4"></rect>
                                    <rect id="dash-copy-30" transform="translate(1.000000, 786.000000) rotate(-180.000000) translate(-1.000000, -786.000000) " x="0" y="784" width="2" height="4"></rect>
                                    <rect id="dash-copy-31" transform="translate(1.000000, 794.000000) rotate(-180.000000) translate(-1.000000, -794.000000) " x="0" y="792" width="2" height="4"></rect>
                                    <rect id="dash-copy-32" transform="translate(1.000000, 802.000000) rotate(-180.000000) translate(-1.000000, -802.000000) " x="0" y="800" width="2" height="4"></rect>
                                    <rect id="dash-copy-33" transform="translate(1.000000, 810.000000) rotate(-180.000000) translate(-1.000000, -810.000000) " x="0" y="808" width="2" height="4"></rect>
                                    <rect id="dash-copy-34" transform="translate(1.000000, 818.000000) rotate(-180.000000) translate(-1.000000, -818.000000) " x="0" y="816" width="2" height="4"></rect>
                                    <rect id="dash-copy-35" transform="translate(1.000000, 826.000000) rotate(-180.000000) translate(-1.000000, -826.000000) " x="0" y="824" width="2" height="4"></rect>
                                    <rect id="dash-copy-36" transform="translate(1.000000, 834.000000) rotate(-180.000000) translate(-1.000000, -834.000000) " x="0" y="832" width="2" height="4"></rect>
                                    <rect id="dash-copy-37" transform="translate(1.000000, 842.000000) rotate(-180.000000) translate(-1.000000, -842.000000) " x="0" y="840" width="2" height="4"></rect>
                                    <rect id="dash-copy-38" transform="translate(1.000000, 850.000000) rotate(-180.000000) translate(-1.000000, -850.000000) " x="0" y="848" width="2" height="4"></rect>
                                    <rect id="dash-copy-39" transform="translate(1.000000, 858.000000) rotate(-180.000000) translate(-1.000000, -858.000000) " x="0" y="856" width="2" height="4"></rect>
                                    <rect id="dash-copy-40" transform="translate(1.000000, 866.000000) rotate(-180.000000) translate(-1.000000, -866.000000) " x="0" y="864" width="2" height="4"></rect>
                                    <rect id="dash-copy-41" transform="translate(1.000000, 874.000000) rotate(-180.000000) translate(-1.000000, -874.000000) " x="0" y="872" width="2" height="4"></rect>
                                    <rect id="dash-copy-42" transform="translate(1.000000, 882.000000) rotate(-180.000000) translate(-1.000000, -882.000000) " x="0" y="880" width="2" height="4"></rect>
                                    <rect id="dash-copy-43" transform="translate(1.000000, 890.000000) rotate(-180.000000) translate(-1.000000, -890.000000) " x="0" y="888" width="2" height="4"></rect>
                                    <rect id="dash-copy-44" transform="translate(1.000000, 898.000000) rotate(-180.000000) translate(-1.000000, -898.000000) " x="0" y="896" width="2" height="4"></rect>
                                    <rect id="dash-copy-45" transform="translate(1.000000, 906.000000) rotate(-180.000000) translate(-1.000000, -906.000000) " x="0" y="904" width="2" height="4"></rect>
                                    <rect id="dash-copy-46" transform="translate(1.000000, 914.000000) rotate(-180.000000) translate(-1.000000, -914.000000) " x="0" y="912" width="2" height="4"></rect>
                                    <rect id="dash-copy-47" transform="translate(1.000000, 922.000000) rotate(-180.000000) translate(-1.000000, -922.000000) " x="0" y="920" width="2" height="4"></rect>
                                    <rect id="dash-copy-48" transform="translate(1.000000, 930.000000) rotate(-180.000000) translate(-1.000000, -930.000000) " x="0" y="928" width="2" height="4"></rect>
                                    <rect id="dash-copy-49" transform="translate(1.000000, 938.000000) rotate(-180.000000) translate(-1.000000, -938.000000) " x="0" y="936" width="2" height="4"></rect>
                                    <rect id="dash-copy-50" transform="translate(1.000000, 946.000000) rotate(-180.000000) translate(-1.000000, -946.000000) " x="0" y="944" width="2" height="4"></rect>
                                    <rect id="dash-copy-51" transform="translate(1.000000, 954.000000) rotate(-180.000000) translate(-1.000000, -954.000000) " x="0" y="952" width="2" height="4"></rect>
                                    <rect id="dash-copy-52" transform="translate(1.000000, 962.000000) rotate(-180.000000) translate(-1.000000, -962.000000) " x="0" y="960" width="2" height="4"></rect>
                                    <rect id="dash-copy-53" transform="translate(1.000000, 970.000000) rotate(-180.000000) translate(-1.000000, -970.000000) " x="0" y="968" width="2" height="4"></rect>
                                    <rect id="dash-copy-54" transform="translate(1.000000, 978.000000) rotate(-180.000000) translate(-1.000000, -978.000000) " x="0" y="976" width="2" height="4"></rect>
                                    <rect id="dash-copy-55" transform="translate(1.000000, 986.000000) rotate(-180.000000) translate(-1.000000, -986.000000) " x="0" y="984" width="2" height="4"></rect>
                                    <rect id="dash-copy-56" transform="translate(1.000000, 994.000000) rotate(-180.000000) translate(-1.000000, -994.000000) " x="0" y="992" width="2" height="4"></rect>
                                    <rect id="dash-copy-57" transform="translate(1.000000, 1002.000000) rotate(-180.000000) translate(-1.000000, -1002.000000) " x="0" y="1000" width="2" height="4"></rect>
                                    <rect id="dash-copy-58" transform="translate(1.000000, 1010.000000) rotate(-180.000000) translate(-1.000000, -1010.000000) " x="0" y="1008" width="2" height="4"></rect>
                                    <rect id="dash-copy-59" transform="translate(1.000000, 1018.000000) rotate(-180.000000) translate(-1.000000, -1018.000000) " x="0" y="1016" width="2" height="4"></rect>
                                    <rect id="dash-copy-60" transform="translate(1.000000, 1026.000000) rotate(-180.000000) translate(-1.000000, -1026.000000) " x="0" y="1024" width="2" height="4"></rect>
                                    <rect id="dash-copy-61" transform="translate(1.000000, 1034.000000) rotate(-180.000000) translate(-1.000000, -1034.000000) " x="0" y="1032" width="2" height="4"></rect>
                                    <rect id="dash-copy-62" transform="translate(1.000000, 1042.000000) rotate(-180.000000) translate(-1.000000, -1042.000000) " x="0" y="1040" width="2" height="4"></rect>
                                    <rect id="dash-copy-63" transform="translate(1.000000, 1050.000000) rotate(-180.000000) translate(-1.000000, -1050.000000) " x="0" y="1048" width="2" height="4"></rect>
                                    <rect id="dash-copy-64" transform="translate(1.000000, 1058.000000) rotate(-180.000000) translate(-1.000000, -1058.000000) " x="0" y="1056" width="2" height="4"></rect>
                                    <rect id="dash-copy-65" transform="translate(1.000000, 1066.000000) rotate(-180.000000) translate(-1.000000, -1066.000000) " x="0" y="1064" width="2" height="4"></rect>
                                    <rect id="dash-copy-66" transform="translate(1.000000, 1074.000000) rotate(-180.000000) translate(-1.000000, -1074.000000) " x="0" y="1072" width="2" height="4"></rect>
                                    <rect id="dash-copy-67" transform="translate(1.000000, 1082.000000) rotate(-180.000000) translate(-1.000000, -1082.000000) " x="0" y="1080" width="2" height="4"></rect>
                                </g>
                            </g>
                        </g>
                    </g>
                </g>
            </g>
        </g>
    </g>
</svg>