<?xml version="1.0" encoding="UTF-8"?>
<svg width="24px" height="24px" viewBox="0 0 24 24" version="1.1" xmlns="http://www.w3.org/2000/svg" xmlns:xlink="http://www.w3.org/1999/xlink">
    <!-- Generator: Sketch 53.2 (72643) - https://sketchapp.com -->
    <title>@2xicn_tooltip</title>
    <desc>Created with Sketch.</desc>
    <g id="Components" stroke="none" stroke-width="1" fill="none" fill-rule="evenodd">
        <g id="Toolkit-Documentation:-Components" transform="translate(-951.000000, -1247.000000)">
            <g id="Popups-&amp;-Modals" transform="translate(951.000000, 1003.000000)">
                <g id="Tooltip" transform="translate(0.000000, 218.000000)">
                    <g id="icn_tooltip" transform="translate(0.000000, 26.000000)">
                        <polygon id="Shape" points="0 0 24 0 24 24 0 24"></polygon>
                        <path d="M4.20006453,4.25640256 C2.05914227,6.39732481 1,8.9597658 1,12 C1,15.0396356 2.0681089,17.6116418 4.22823354,19.7717665 C6.38835819,21.9318911 8.96036441,23 12,23 C15.0396356,23 17.6116418,21.9318911 19.7717665,19.7717665 C21.9318911,17.6116418 23,15.0396356 23,12 C23,8.96036441 21.9318911,6.38835819 19.7717665,4.22823354 C17.6116418,2.0681089 15.0396356,1 12,1 C8.96096299,1 6.37938479,2.0770823 4.20006453,4.25640256 Z" id="info" stroke="#018DAB" stroke-width="2"></path>
                        <path d="M12,7 L12,13" id="Shape" stroke="#018DAB" stroke-width="2" stroke-linecap="square"></path>
                        <rect id="Rectangle-2" fill="#018DAB" fill-rule="nonzero" x="11" y="15" width="2" height="2"></rect>
                    </g>
                </g>
            </g>
        </g>
    </g>
</svg>