<?xml version="1.0" encoding="UTF-8"?>
  <svg width="703px" height="1017px" viewBox="0 0 703 1017" version="1.1" xmlns="http://www.w3.org/2000/svg" xmlns:xlink="http://www.w3.org/1999/xlink">
    <!-- Generator: Sketch 51.3 (57544) - http://www.bohemiancoding.com/sketch -->
    <title>@2xGroup 9</title>
    <desc>Created with Sketch.</desc>
    <defs></defs>
    <g id="Documentation" stroke="none" stroke-width="1" fill="none" fill-rule="evenodd">
        <g id="Toolkit-Documentation---Typography" transform="translate(-352.000000, -476.000000)">
            <g id="Main-Content" transform="translate(352.000000, 129.000000)">
                <g id="Example" transform="translate(0.000000, 176.000000)">
                    <g id="Group-9" transform="translate(0.000000, 171.000000)">
                        <rect id="Rectangle" fill-opacity="0.12" fill="#000000" x="0" y="134" width="703" height="1"></rect>
                        <rect id="Rectangle" fill-opacity="0.12" fill="#000000" x="0" y="43" width="703" height="1"></rect>
                        <rect id="Rectangle" fill-opacity="0.12" fill="#000000" x="0" y="218" width="703" height="1"></rect>
                        <rect id="Rectangle" fill-opacity="0.12" fill="#000000" x="0" y="294" width="703" height="1"></rect>
                        <rect id="Rectangle" fill-opacity="0.12" fill="#000000" x="0" y="362" width="703" height="1"></rect>
                        <rect id="Rectangle-Copy-2" fill-opacity="0.12" fill="#000000" x="481" y="0" width="1" height="1015"></rect>
                        <rect id="Rectangle-Copy-3" fill-opacity="0.12" fill="#000000" x="592" y="0" width="1" height="1015"></rect>
                        <rect id="Rectangle" fill-opacity="0.12" fill="#000000" x="0" y="426" width="703" height="1"></rect>
                        <rect id="Rectangle" fill-opacity="0.12" fill="#000000" x="0" y="490" width="703" height="1"></rect>
                        <rect id="Rectangle" fill-opacity="0.12" fill="#000000" x="0" y="550" width="703" height="1"></rect>
                        <rect id="Rectangle" fill-opacity="0.12" fill="#000000" x="0" y="610" width="703" height="1"></rect>
                        <rect id="Rectangle" fill-opacity="0.12" fill="#000000" x="0" y="670" width="703" height="1"></rect>
                        <rect id="Rectangle" fill-opacity="0.12" fill="#000000" x="0" y="730" width="703" height="1"></rect>
                        <rect id="Rectangle" fill-opacity="0.12" fill="#000000" x="0" y="846" width="703" height="1"></rect>
                        <rect id="Rectangle" fill-opacity="0.12" fill="#000000" x="0" y="958" width="703" height="1"></rect>
                        <rect id="Rectangle" fill-opacity="0.12" fill="#000000" x="0" y="902" width="703" height="1"></rect>
                        <rect id="Rectangle" fill-opacity="0.12" fill="#000000" x="0" y="790" width="703" height="1"></rect>
                        <g id="Dash-lines" transform="translate(370.000000, 0.000000)" fill="#878787">
                            <rect id="dash" transform="translate(1.000000, 2.000000) rotate(-180.000000) translate(-1.000000, -2.000000) " x="0" y="0" width="2" height="4"></rect>
                            <rect id="dash-copy" transform="translate(1.000000, 10.000000) rotate(-180.000000) translate(-1.000000, -10.000000) " x="0" y="8" width="2" height="4"></rect>
                            <rect id="dash-copy-2" transform="translate(1.000000, 18.000000) rotate(-180.000000) translate(-1.000000, -18.000000) " x="0" y="16" width="2" height="4"></rect>
                            <rect id="dash-copy-3" transform="translate(1.000000, 26.000000) rotate(-180.000000) translate(-1.000000, -26.000000) " x="0" y="24" width="2" height="4"></rect>
                            <rect id="dash-copy-4" transform="translate(1.000000, 34.000000) rotate(-180.000000) translate(-1.000000, -34.000000) " x="0" y="32" width="2" height="4"></rect>
                            <rect id="dash-copy-5" transform="translate(1.000000, 42.000000) rotate(-180.000000) translate(-1.000000, -42.000000) " x="0" y="40" width="2" height="4"></rect>
                            <rect id="dash-copy-6" transform="translate(1.000000, 50.000000) rotate(-180.000000) translate(-1.000000, -50.000000) " x="0" y="48" width="2" height="4"></rect>
                            <rect id="dash-copy-7" transform="translate(1.000000, 58.000000) rotate(-180.000000) translate(-1.000000, -58.000000) " x="0" y="56" width="2" height="4"></rect>
                            <rect id="dash-copy-8" transform="translate(1.000000, 66.000000) rotate(-180.000000) translate(-1.000000, -66.000000) " x="0" y="64" width="2" height="4"></rect>
                            <rect id="dash-copy-9" transform="translate(1.000000, 74.000000) rotate(-180.000000) translate(-1.000000, -74.000000) " x="0" y="72" width="2" height="4"></rect>
                            <rect id="dash-copy-10" transform="translate(1.000000, 82.000000) rotate(-180.000000) translate(-1.000000, -82.000000) " x="0" y="80" width="2" height="4"></rect>
                            <rect id="dash-copy-11" transform="translate(1.000000, 90.000000) rotate(-180.000000) translate(-1.000000, -90.000000) " x="0" y="88" width="2" height="4"></rect>
                            <rect id="dash-copy-12" transform="translate(1.000000, 98.000000) rotate(-180.000000) translate(-1.000000, -98.000000) " x="0" y="96" width="2" height="4"></rect>
                            <rect id="dash-copy-13" transform="translate(1.000000, 106.000000) rotate(-180.000000) translate(-1.000000, -106.000000) " x="0" y="104" width="2" height="4"></rect>
                            <rect id="dash-copy-14" transform="translate(1.000000, 114.000000) rotate(-180.000000) translate(-1.000000, -114.000000) " x="0" y="112" width="2" height="4"></rect>
                            <rect id="dash-copy-15" transform="translate(1.000000, 122.000000) rotate(-180.000000) translate(-1.000000, -122.000000) " x="0" y="120" width="2" height="4"></rect>
                            <rect id="dash-copy-16" transform="translate(1.000000, 130.000000) rotate(-180.000000) translate(-1.000000, -130.000000) " x="0" y="128" width="2" height="4"></rect>
                            <rect id="dash-copy-17" transform="translate(1.000000, 138.000000) rotate(-180.000000) translate(-1.000000, -138.000000) " x="0" y="136" width="2" height="4"></rect>
                            <rect id="dash-copy-18" transform="translate(1.000000, 146.000000) rotate(-180.000000) translate(-1.000000, -146.000000) " x="0" y="144" width="2" height="4"></rect>
                            <rect id="dash-copy-19" transform="translate(1.000000, 154.000000) rotate(-180.000000) translate(-1.000000, -154.000000) " x="0" y="152" width="2" height="4"></rect>
                            <rect id="dash-copy-20" transform="translate(1.000000, 162.000000) rotate(-180.000000) translate(-1.000000, -162.000000) " x="0" y="160" width="2" height="4"></rect>
                            <rect id="dash-copy-21" transform="translate(1.000000, 170.000000) rotate(-180.000000) translate(-1.000000, -170.000000) " x="0" y="168" width="2" height="4"></rect>
                            <rect id="dash-copy-22" transform="translate(1.000000, 178.000000) rotate(-180.000000) translate(-1.000000, -178.000000) " x="0" y="176" width="2" height="4"></rect>
                            <rect id="dash-copy-23" transform="translate(1.000000, 186.000000) rotate(-180.000000) translate(-1.000000, -186.000000) " x="0" y="184" width="2" height="4"></rect>
                            <rect id="dash-copy-24" transform="translate(1.000000, 194.000000) rotate(-180.000000) translate(-1.000000, -194.000000) " x="0" y="192" width="2" height="4"></rect>
                            <rect id="dash-copy-25" transform="translate(1.000000, 202.000000) rotate(-180.000000) translate(-1.000000, -202.000000) " x="0" y="200" width="2" height="4"></rect>
                            <rect id="dash-copy-26" transform="translate(1.000000, 210.000000) rotate(-180.000000) translate(-1.000000, -210.000000) " x="0" y="208" width="2" height="4"></rect>
                            <rect id="dash-copy-27" transform="translate(1.000000, 218.000000) rotate(-180.000000) translate(-1.000000, -218.000000) " x="0" y="216" width="2" height="4"></rect>
                            <rect id="dash-copy-28" transform="translate(1.000000, 226.000000) rotate(-180.000000) translate(-1.000000, -226.000000) " x="0" y="224" width="2" height="4"></rect>
                            <rect id="dash-copy-29" transform="translate(1.000000, 234.000000) rotate(-180.000000) translate(-1.000000, -234.000000) " x="0" y="232" width="2" height="4"></rect>
                            <rect id="dash-copy-30" transform="translate(1.000000, 242.000000) rotate(-180.000000) translate(-1.000000, -242.000000) " x="0" y="240" width="2" height="4"></rect>
                            <rect id="dash-copy-31" transform="translate(1.000000, 250.000000) rotate(-180.000000) translate(-1.000000, -250.000000) " x="0" y="248" width="2" height="4"></rect>
                            <rect id="dash-copy-32" transform="translate(1.000000, 258.000000) rotate(-180.000000) translate(-1.000000, -258.000000) " x="0" y="256" width="2" height="4"></rect>
                            <rect id="dash-copy-33" transform="translate(1.000000, 266.000000) rotate(-180.000000) translate(-1.000000, -266.000000) " x="0" y="264" width="2" height="4"></rect>
                            <rect id="dash-copy-34" transform="translate(1.000000, 274.000000) rotate(-180.000000) translate(-1.000000, -274.000000) " x="0" y="272" width="2" height="4"></rect>
                            <rect id="dash-copy-35" transform="translate(1.000000, 282.000000) rotate(-180.000000) translate(-1.000000, -282.000000) " x="0" y="280" width="2" height="4"></rect>
                            <rect id="dash-copy-36" transform="translate(1.000000, 290.000000) rotate(-180.000000) translate(-1.000000, -290.000000) " x="0" y="288" width="2" height="4"></rect>
                            <rect id="dash-copy-37" transform="translate(1.000000, 298.000000) rotate(-180.000000) translate(-1.000000, -298.000000) " x="0" y="296" width="2" height="4"></rect>
                            <rect id="dash-copy-38" transform="translate(1.000000, 306.000000) rotate(-180.000000) translate(-1.000000, -306.000000) " x="0" y="304" width="2" height="4"></rect>
                            <rect id="dash-copy-39" transform="translate(1.000000, 314.000000) rotate(-180.000000) translate(-1.000000, -314.000000) " x="0" y="312" width="2" height="4"></rect>
                            <rect id="dash-copy-40" transform="translate(1.000000, 322.000000) rotate(-180.000000) translate(-1.000000, -322.000000) " x="0" y="320" width="2" height="4"></rect>
                            <rect id="dash-copy-41" transform="translate(1.000000, 330.000000) rotate(-180.000000) translate(-1.000000, -330.000000) " x="0" y="328" width="2" height="4"></rect>
                            <rect id="dash-copy-42" transform="translate(1.000000, 338.000000) rotate(-180.000000) translate(-1.000000, -338.000000) " x="0" y="336" width="2" height="4"></rect>
                            <rect id="dash-copy-43" transform="translate(1.000000, 346.000000) rotate(-180.000000) translate(-1.000000, -346.000000) " x="0" y="344" width="2" height="4"></rect>
                            <rect id="dash-copy-44" transform="translate(1.000000, 354.000000) rotate(-180.000000) translate(-1.000000, -354.000000) " x="0" y="352" width="2" height="4"></rect>
                            <rect id="dash-copy-45" transform="translate(1.000000, 362.000000) rotate(-180.000000) translate(-1.000000, -362.000000) " x="0" y="360" width="2" height="4"></rect>
                            <rect id="dash-copy-46" transform="translate(1.000000, 370.000000) rotate(-180.000000) translate(-1.000000, -370.000000) " x="0" y="368" width="2" height="4"></rect>
                            <rect id="dash-copy-47" transform="translate(1.000000, 378.000000) rotate(-180.000000) translate(-1.000000, -378.000000) " x="0" y="376" width="2" height="4"></rect>
                            <rect id="dash-copy-48" transform="translate(1.000000, 386.000000) rotate(-180.000000) translate(-1.000000, -386.000000) " x="0" y="384" width="2" height="4"></rect>
                            <rect id="dash-copy-49" transform="translate(1.000000, 394.000000) rotate(-180.000000) translate(-1.000000, -394.000000) " x="0" y="392" width="2" height="4"></rect>
                            <rect id="dash-copy-50" transform="translate(1.000000, 402.000000) rotate(-180.000000) translate(-1.000000, -402.000000) " x="0" y="400" width="2" height="4"></rect>
                            <rect id="dash-copy-51" transform="translate(1.000000, 410.000000) rotate(-180.000000) translate(-1.000000, -410.000000) " x="0" y="408" width="2" height="4"></rect>
                            <rect id="dash-copy-52" transform="translate(1.000000, 418.000000) rotate(-180.000000) translate(-1.000000, -418.000000) " x="0" y="416" width="2" height="4"></rect>
                            <rect id="dash-copy-53" transform="translate(1.000000, 426.000000) rotate(-180.000000) translate(-1.000000, -426.000000) " x="0" y="424" width="2" height="4"></rect>
                            <rect id="dash-copy-54" transform="translate(1.000000, 434.000000) rotate(-180.000000) translate(-1.000000, -434.000000) " x="0" y="432" width="2" height="4"></rect>
                            <rect id="dash-copy-55" transform="translate(1.000000, 442.000000) rotate(-180.000000) translate(-1.000000, -442.000000) " x="0" y="440" width="2" height="4"></rect>
                            <rect id="dash-copy-56" transform="translate(1.000000, 450.000000) rotate(-180.000000) translate(-1.000000, -450.000000) " x="0" y="448" width="2" height="4"></rect>
                            <rect id="dash-copy-57" transform="translate(1.000000, 458.000000) rotate(-180.000000) translate(-1.000000, -458.000000) " x="0" y="456" width="2" height="4"></rect>
                            <rect id="dash-copy-58" transform="translate(1.000000, 466.000000) rotate(-180.000000) translate(-1.000000, -466.000000) " x="0" y="464" width="2" height="4"></rect>
                            <rect id="dash-copy-59" transform="translate(1.000000, 474.000000) rotate(-180.000000) translate(-1.000000, -474.000000) " x="0" y="472" width="2" height="4"></rect>
                            <rect id="dash-copy-60" transform="translate(1.000000, 482.000000) rotate(-180.000000) translate(-1.000000, -482.000000) " x="0" y="480" width="2" height="4"></rect>
                            <rect id="dash-copy-61" transform="translate(1.000000, 490.000000) rotate(-180.000000) translate(-1.000000, -490.000000) " x="0" y="488" width="2" height="4"></rect>
                            <rect id="dash-copy-62" transform="translate(1.000000, 498.000000) rotate(-180.000000) translate(-1.000000, -498.000000) " x="0" y="496" width="2" height="4"></rect>
                            <rect id="dash-copy-63" transform="translate(1.000000, 506.000000) rotate(-180.000000) translate(-1.000000, -506.000000) " x="0" y="504" width="2" height="4"></rect>
                            <rect id="dash-copy-64" transform="translate(1.000000, 514.000000) rotate(-180.000000) translate(-1.000000, -514.000000) " x="0" y="512" width="2" height="4"></rect>
                            <rect id="dash-copy-65" transform="translate(1.000000, 522.000000) rotate(-180.000000) translate(-1.000000, -522.000000) " x="0" y="520" width="2" height="4"></rect>
                            <rect id="dash-copy-66" transform="translate(1.000000, 530.000000) rotate(-180.000000) translate(-1.000000, -530.000000) " x="0" y="528" width="2" height="4"></rect>
                            <rect id="dash-copy-67" transform="translate(1.000000, 538.000000) rotate(-180.000000) translate(-1.000000, -538.000000) " x="0" y="536" width="2" height="4"></rect>
                            <rect id="dash" transform="translate(1.000000, 546.000000) rotate(-180.000000) translate(-1.000000, -546.000000) " x="0" y="544" width="2" height="4"></rect>
                            <rect id="dash-copy" transform="translate(1.000000, 554.000000) rotate(-180.000000) translate(-1.000000, -554.000000) " x="0" y="552" width="2" height="4"></rect>
                            <rect id="dash-copy-2" transform="translate(1.000000, 562.000000) rotate(-180.000000) translate(-1.000000, -562.000000) " x="0" y="560" width="2" height="4"></rect>
                            <rect id="dash-copy-3" transform="translate(1.000000, 570.000000) rotate(-180.000000) translate(-1.000000, -570.000000) " x="0" y="568" width="2" height="4"></rect>
                            <rect id="dash-copy-4" transform="translate(1.000000, 578.000000) rotate(-180.000000) translate(-1.000000, -578.000000) " x="0" y="576" width="2" height="4"></rect>
                            <rect id="dash-copy-5" transform="translate(1.000000, 586.000000) rotate(-180.000000) translate(-1.000000, -586.000000) " x="0" y="584" width="2" height="4"></rect>
                            <rect id="dash-copy-6" transform="translate(1.000000, 594.000000) rotate(-180.000000) translate(-1.000000, -594.000000) " x="0" y="592" width="2" height="4"></rect>
                            <rect id="dash-copy-7" transform="translate(1.000000, 602.000000) rotate(-180.000000) translate(-1.000000, -602.000000) " x="0" y="600" width="2" height="4"></rect>
                            <rect id="dash-copy-8" transform="translate(1.000000, 610.000000) rotate(-180.000000) translate(-1.000000, -610.000000) " x="0" y="608" width="2" height="4"></rect>
                            <rect id="dash-copy-9" transform="translate(1.000000, 618.000000) rotate(-180.000000) translate(-1.000000, -618.000000) " x="0" y="616" width="2" height="4"></rect>
                            <rect id="dash-copy-10" transform="translate(1.000000, 626.000000) rotate(-180.000000) translate(-1.000000, -626.000000) " x="0" y="624" width="2" height="4"></rect>
                            <rect id="dash-copy-11" transform="translate(1.000000, 634.000000) rotate(-180.000000) translate(-1.000000, -634.000000) " x="0" y="632" width="2" height="4"></rect>
                            <rect id="dash-copy-12" transform="translate(1.000000, 642.000000) rotate(-180.000000) translate(-1.000000, -642.000000) " x="0" y="640" width="2" height="4"></rect>
                            <rect id="dash-copy-13" transform="translate(1.000000, 650.000000) rotate(-180.000000) translate(-1.000000, -650.000000) " x="0" y="648" width="2" height="4"></rect>
                            <rect id="dash-copy-14" transform="translate(1.000000, 658.000000) rotate(-180.000000) translate(-1.000000, -658.000000) " x="0" y="656" width="2" height="4"></rect>
                            <rect id="dash-copy-15" transform="translate(1.000000, 666.000000) rotate(-180.000000) translate(-1.000000, -666.000000) " x="0" y="664" width="2" height="4"></rect>
                            <rect id="dash-copy-16" transform="translate(1.000000, 674.000000) rotate(-180.000000) translate(-1.000000, -674.000000) " x="0" y="672" width="2" height="4"></rect>
                            <rect id="dash-copy-17" transform="translate(1.000000, 682.000000) rotate(-180.000000) translate(-1.000000, -682.000000) " x="0" y="680" width="2" height="4"></rect>
                            <rect id="dash-copy-18" transform="translate(1.000000, 690.000000) rotate(-180.000000) translate(-1.000000, -690.000000) " x="0" y="688" width="2" height="4"></rect>
                            <rect id="dash-copy-19" transform="translate(1.000000, 698.000000) rotate(-180.000000) translate(-1.000000, -698.000000) " x="0" y="696" width="2" height="4"></rect>
                            <rect id="dash-copy-20" transform="translate(1.000000, 706.000000) rotate(-180.000000) translate(-1.000000, -706.000000) " x="0" y="704" width="2" height="4"></rect>
                            <rect id="dash-copy-21" transform="translate(1.000000, 714.000000) rotate(-180.000000) translate(-1.000000, -714.000000) " x="0" y="712" width="2" height="4"></rect>
                            <rect id="dash-copy-22" transform="translate(1.000000, 722.000000) rotate(-180.000000) translate(-1.000000, -722.000000) " x="0" y="720" width="2" height="4"></rect>
                            <rect id="dash-copy-23" transform="translate(1.000000, 730.000000) rotate(-180.000000) translate(-1.000000, -730.000000) " x="0" y="728" width="2" height="4"></rect>
                            <rect id="dash-copy-24" transform="translate(1.000000, 738.000000) rotate(-180.000000) translate(-1.000000, -738.000000) " x="0" y="736" width="2" height="4"></rect>
                            <rect id="dash-copy-25" transform="translate(1.000000, 746.000000) rotate(-180.000000) translate(-1.000000, -746.000000) " x="0" y="744" width="2" height="4"></rect>
                            <rect id="dash-copy-26" transform="translate(1.000000, 754.000000) rotate(-180.000000) translate(-1.000000, -754.000000) " x="0" y="752" width="2" height="4"></rect>
                            <rect id="dash-copy-27" transform="translate(1.000000, 762.000000) rotate(-180.000000) translate(-1.000000, -762.000000) " x="0" y="760" width="2" height="4"></rect>
                            <rect id="dash-copy-28" transform="translate(1.000000, 770.000000) rotate(-180.000000) translate(-1.000000, -770.000000) " x="0" y="768" width="2" height="4"></rect>
                            <rect id="dash-copy-29" transform="translate(1.000000, 778.000000) rotate(-180.000000) translate(-1.000000, -778.000000) " x="0" y="776" width="2" height="4"></rect>
                            <rect id="dash-copy-30" transform="translate(1.000000, 786.000000) rotate(-180.000000) translate(-1.000000, -786.000000) " x="0" y="784" width="2" height="4"></rect>
                            <rect id="dash-copy-31" transform="translate(1.000000, 794.000000) rotate(-180.000000) translate(-1.000000, -794.000000) " x="0" y="792" width="2" height="4"></rect>
                            <rect id="dash-copy-32" transform="translate(1.000000, 802.000000) rotate(-180.000000) translate(-1.000000, -802.000000) " x="0" y="800" width="2" height="4"></rect>
                            <rect id="dash-copy-33" transform="translate(1.000000, 810.000000) rotate(-180.000000) translate(-1.000000, -810.000000) " x="0" y="808" width="2" height="4"></rect>
                            <rect id="dash-copy-34" transform="translate(1.000000, 818.000000) rotate(-180.000000) translate(-1.000000, -818.000000) " x="0" y="816" width="2" height="4"></rect>
                            <rect id="dash-copy-35" transform="translate(1.000000, 826.000000) rotate(-180.000000) translate(-1.000000, -826.000000) " x="0" y="824" width="2" height="4"></rect>
                            <rect id="dash-copy-36" transform="translate(1.000000, 834.000000) rotate(-180.000000) translate(-1.000000, -834.000000) " x="0" y="832" width="2" height="4"></rect>
                            <rect id="dash-copy-37" transform="translate(1.000000, 842.000000) rotate(-180.000000) translate(-1.000000, -842.000000) " x="0" y="840" width="2" height="4"></rect>
                            <rect id="dash-copy-38" transform="translate(1.000000, 850.000000) rotate(-180.000000) translate(-1.000000, -850.000000) " x="0" y="848" width="2" height="4"></rect>
                            <rect id="dash-copy-39" transform="translate(1.000000, 858.000000) rotate(-180.000000) translate(-1.000000, -858.000000) " x="0" y="856" width="2" height="4"></rect>
                            <rect id="dash-copy-40" transform="translate(1.000000, 866.000000) rotate(-180.000000) translate(-1.000000, -866.000000) " x="0" y="864" width="2" height="4"></rect>
                            <rect id="dash-copy-41" transform="translate(1.000000, 874.000000) rotate(-180.000000) translate(-1.000000, -874.000000) " x="0" y="872" width="2" height="4"></rect>
                            <rect id="dash-copy-42" transform="translate(1.000000, 882.000000) rotate(-180.000000) translate(-1.000000, -882.000000) " x="0" y="880" width="2" height="4"></rect>
                            <rect id="dash-copy-43" transform="translate(1.000000, 890.000000) rotate(-180.000000) translate(-1.000000, -890.000000) " x="0" y="888" width="2" height="4"></rect>
                            <rect id="dash-copy-44" transform="translate(1.000000, 898.000000) rotate(-180.000000) translate(-1.000000, -898.000000) " x="0" y="896" width="2" height="4"></rect>
                            <rect id="dash-copy-45" transform="translate(1.000000, 906.000000) rotate(-180.000000) translate(-1.000000, -906.000000) " x="0" y="904" width="2" height="4"></rect>
                            <rect id="dash-copy-46" transform="translate(1.000000, 914.000000) rotate(-180.000000) translate(-1.000000, -914.000000) " x="0" y="912" width="2" height="4"></rect>
                            <rect id="dash-copy-47" transform="translate(1.000000, 922.000000) rotate(-180.000000) translate(-1.000000, -922.000000) " x="0" y="920" width="2" height="4"></rect>
                            <rect id="dash-copy-48" transform="translate(1.000000, 930.000000) rotate(-180.000000) translate(-1.000000, -930.000000) " x="0" y="928" width="2" height="4"></rect>
                            <rect id="dash-copy-49" transform="translate(1.000000, 938.000000) rotate(-180.000000) translate(-1.000000, -938.000000) " x="0" y="936" width="2" height="4"></rect>
                            <rect id="dash-copy-50" transform="translate(1.000000, 946.000000) rotate(-180.000000) translate(-1.000000, -946.000000) " x="0" y="944" width="2" height="4"></rect>
                            <rect id="dash-copy-51" transform="translate(1.000000, 954.000000) rotate(-180.000000) translate(-1.000000, -954.000000) " x="0" y="952" width="2" height="4"></rect>
                            <rect id="dash-copy-52" transform="translate(1.000000, 962.000000) rotate(-180.000000) translate(-1.000000, -962.000000) " x="0" y="960" width="2" height="4"></rect>
                            <rect id="dash-copy-53" transform="translate(1.000000, 970.000000) rotate(-180.000000) translate(-1.000000, -970.000000) " x="0" y="968" width="2" height="4"></rect>
                            <rect id="dash-copy-54" transform="translate(1.000000, 978.000000) rotate(-180.000000) translate(-1.000000, -978.000000) " x="0" y="976" width="2" height="4"></rect>
                            <rect id="dash-copy-55" transform="translate(1.000000, 986.000000) rotate(-180.000000) translate(-1.000000, -986.000000) " x="0" y="984" width="2" height="4"></rect>
                            <rect id="dash-copy-56" transform="translate(1.000000, 994.000000) rotate(-180.000000) translate(-1.000000, -994.000000) " x="0" y="992" width="2" height="4"></rect>
                            <rect id="dash-copy-57" transform="translate(1.000000, 1002.000000) rotate(-180.000000) translate(-1.000000, -1002.000000) " x="0" y="1000" width="2" height="4"></rect>
                            <rect id="dash-copy-58" transform="translate(1.000000, 1010.000000) rotate(-180.000000) translate(-1.000000, -1010.000000) " x="0" y="1008" width="2" height="4"></rect>
                            <rect id="dash-copy-59" transform="translate(1.000000, 1018.000000) rotate(-180.000000) translate(-1.000000, -1018.000000) " x="0" y="1016" width="2" height="4"></rect>
                            <rect id="dash-copy-60" transform="translate(1.000000, 1026.000000) rotate(-180.000000) translate(-1.000000, -1026.000000) " x="0" y="1024" width="2" height="4"></rect>
                            <rect id="dash-copy-61" transform="translate(1.000000, 1034.000000) rotate(-180.000000) translate(-1.000000, -1034.000000) " x="0" y="1032" width="2" height="4"></rect>
                            <rect id="dash-copy-62" transform="translate(1.000000, 1042.000000) rotate(-180.000000) translate(-1.000000, -1042.000000) " x="0" y="1040" width="2" height="4"></rect>
                            <rect id="dash-copy-63" transform="translate(1.000000, 1050.000000) rotate(-180.000000) translate(-1.000000, -1050.000000) " x="0" y="1048" width="2" height="4"></rect>
                            <rect id="dash-copy-64" transform="translate(1.000000, 1058.000000) rotate(-180.000000) translate(-1.000000, -1058.000000) " x="0" y="1056" width="2" height="4"></rect>
                            <rect id="dash-copy-65" transform="translate(1.000000, 1066.000000) rotate(-180.000000) translate(-1.000000, -1066.000000) " x="0" y="1064" width="2" height="4"></rect>
                            <rect id="dash-copy-66" transform="translate(1.000000, 1074.000000) rotate(-180.000000) translate(-1.000000, -1074.000000) " x="0" y="1072" width="2" height="4"></rect>
                            <rect id="dash-copy-67" transform="translate(1.000000, 1082.000000) rotate(-180.000000) translate(-1.000000, -1082.000000) " x="0" y="1080" width="2" height="4"></rect>
                        </g>
                        <text id="Soleto" font-family=".Roboto, Mono" font-size="10" font-weight="normal" fill="#696969">
                            <tspan x="395" y="123">Soleto</tspan>
                        </text>
                        <text id="Scale-Categories" font-family="Roboto, Mono" font-size="10" font-weight="300" fill="#000000">
                            <tspan x="24" y="25">Scale Categories</tspan>
                        </text>
                        <text id="Typeface" font-family="Roboto, Mono" font-size="10" font-weight="normal" fill="#000000">
                            <tspan x="395" y="25">Typeface</tspan>
                        </text>
                        <text id="Weight" font-family="Roboto, Mono" font-size="10" font-weight="normal" fill="#000000">
                            <tspan x="506" y="25">Weight</tspan>
                        </text>
                        <text id="Size" font-family="Roboto, Mono" font-size="10" font-weight="normal" fill="#000000">
                            <tspan x="617" y="25">Size</tspan>
                        </text>
                        <text id="Medium" font-family=".Roboto, Mono" font-size="10" font-weight="normal" fill="#696969">
                            <tspan x="506" y="123">Medium</tspan>
                        </text>
                        <text id="52" font-family=".Roboto, Mono" font-size="10" font-weight="normal" fill="#696969">
                            <tspan x="617" y="123">52</tspan>
                        </text>
                        <text id="Soleto" font-family=".Roboto, Mono" font-size="10" font-weight="normal" fill="#696969">
                            <tspan x="395" y="207">Soleto</tspan>
                        </text>
                        <text id="Regular" font-family=".Roboto, Mono" font-size="10" font-weight="normal" fill="#696969">
                            <tspan x="506" y="207">Regular</tspan>
                        </text>
                        <text id="46" font-family=".Roboto, Mono" font-size="10" font-weight="normal" fill="#696969">
                            <tspan x="617" y="207">46 </tspan>
                        </text>
                        <text id="Soleto" font-family=".Roboto, Mono" font-size="10" font-weight="normal" fill="#696969">
                            <tspan x="395" y="283">Soleto</tspan>
                        </text>
                        <text id="Regular" font-family=".Roboto, Mono" font-size="10" font-weight="normal" fill="#696969">
                            <tspan x="506" y="283">Regular</tspan>
                        </text>
                        <text id="40" font-family=".Roboto, Mono" font-size="10" font-weight="normal" fill="#696969">
                            <tspan x="617" y="283">40</tspan>
                        </text>
                        <text id="Soleto" font-family=".Roboto, Mono" font-size="10" font-weight="normal" fill="#696969">
                            <tspan x="395" y="351">Soleto</tspan>
                        </text>
                        <text id="Regular" font-family=".Roboto, Mono" font-size="10" font-weight="normal" fill="#696969">
                            <tspan x="506" y="351">Regular</tspan>
                        </text>
                        <text id="34" font-family=".Roboto, Mono" font-size="10" font-weight="normal" fill="#696969">
                            <tspan x="617" y="351">34</tspan>
                        </text>
                        <text id="Soleto" font-family=".Roboto, Mono" font-size="10" font-weight="normal" fill="#696969">
                            <tspan x="395" y="415">Soleto</tspan>
                        </text>
                        <text id="Regular" font-family=".Roboto, Mono" font-size="10" font-weight="normal" fill="#696969">
                            <tspan x="506" y="415">Regular</tspan>
                        </text>
                        <text id="28" font-family=".Roboto, Mono" font-size="10" font-weight="normal" fill="#696969">
                            <tspan x="617" y="415">28</tspan>
                        </text>
                        <text id="Soleto" font-family=".Roboto, Mono" font-size="10" font-weight="normal" fill="#696969">
                            <tspan x="395" y="479">Soleto</tspan>
                        </text>
                        <text id="Regular" font-family=".Roboto, Mono" font-size="10" font-weight="normal" fill="#696969">
                            <tspan x="506" y="479">Regular</tspan>
                        </text>
                        <text id="20" font-family=".Roboto, Mono" font-size="10" font-weight="normal" fill="#696969">
                            <tspan x="617" y="479">20</tspan>
                        </text>
                        <text id="Soleto" font-family=".Roboto, Mono" font-size="10" font-weight="normal" fill="#696969">
                            <tspan x="395" y="539">Soleto</tspan>
                        </text>
                        <text id="Light" font-family=".Roboto, Mono" font-size="10" font-weight="normal" fill="#696969">
                            <tspan x="506" y="539">Light</tspan>
                        </text>
                        <text id="20" font-family=".Roboto, Mono" font-size="10" font-weight="normal" fill="#696969">
                            <tspan x="617" y="539">20</tspan>
                        </text>
                        <text id="Soleto" font-family=".Roboto, Mono" font-size="10" font-weight="normal" fill="#696969">
                            <tspan x="395" y="599">Soleto</tspan>
                        </text>
                        <text id="Light" font-family=".Roboto, Mono" font-size="10" font-weight="normal" fill="#696969">
                            <tspan x="506" y="599">Light</tspan>
                        </text>
                        <text id="18" font-family=".Roboto, Mono" font-size="10" font-weight="normal" fill="#696969">
                            <tspan x="617" y="599">18</tspan>
                        </text>
                        <text id="Soleto" font-family=".Roboto, Mono" font-size="10" font-weight="normal" fill="#696969">
                            <tspan x="395" y="659">Soleto</tspan>
                        </text>
                        <text id="Medium" font-family=".Roboto, Mono" font-size="10" font-weight="normal" fill="#696969">
                            <tspan x="506" y="659">Medium</tspan>
                        </text>
                        <text id="17" font-family=".Roboto, Mono" font-size="10" font-weight="normal" fill="#696969">
                            <tspan x="617" y="659">17</tspan>
                        </text>
                        <text id="Soleto" font-family=".Roboto, Mono" font-size="10" font-weight="normal" fill="#696969">
                            <tspan x="395" y="719">Soleto</tspan>
                        </text>
                        <text id="Light" font-family=".Roboto, Mono" font-size="10" font-weight="normal" fill="#696969">
                            <tspan x="506" y="719">Light</tspan>
                        </text>
                        <text id="16" font-family=".Roboto, Mono" font-size="10" font-weight="normal" fill="#696969">
                            <tspan x="617" y="719">16</tspan>
                        </text>
                        <text id="Soleto" font-family=".Roboto, Mono" font-size="10" font-weight="normal" fill="#696969">
                            <tspan x="395" y="835">Soleto</tspan>
                        </text>
                        <text id="Light" font-family=".Roboto, Mono" font-size="10" font-weight="normal" fill="#696969">
                            <tspan x="506" y="835">Light</tspan>
                        </text>
                        <text id="14" font-family=".Roboto, Mono" font-size="10" font-weight="normal" fill="#696969">
                            <tspan x="617" y="835">14</tspan>
                        </text>
                        <text id="Soleto" font-family=".Roboto, Mono" font-size="10" font-weight="normal" fill="#696969">
                            <tspan x="395" y="891">Soleto</tspan>
                        </text>
                        <text id="Light" font-family=".Roboto, Mono" font-size="10" font-weight="normal" fill="#696969">
                            <tspan x="506" y="891">Light</tspan>
                        </text>
                        <text id="13" font-family=".Roboto, Mono" font-size="10" font-weight="normal" fill="#696969">
                            <tspan x="617" y="891">13</tspan>
                        </text>
                        <text id="Soleto" font-family=".Roboto, Mono" font-size="10" font-weight="normal" fill="#696969">
                            <tspan x="395" y="947">Soleto</tspan>
                        </text>
                        <text id="Regular" font-family=".Roboto, Mono" font-size="10" font-weight="normal" fill="#696969">
                            <tspan x="506" y="947">Regular</tspan>
                        </text>
                        <text id="12" font-family=".Roboto, Mono" font-size="10" font-weight="normal" fill="#696969">
                            <tspan x="617" y="947">12</tspan>
                        </text>
                        <text id="Soleto" font-family=".Roboto, Mono" font-size="10" font-weight="normal" fill="#696969">
                            <tspan x="395" y="1003">Soleto</tspan>
                        </text>
                        <text id="Light" font-family=".Roboto, Mono" font-size="10" font-weight="normal" fill="#696969">
                            <tspan x="506" y="1003">Light</tspan>
                        </text>
                        <text id="11" font-family=".Roboto, Mono" font-size="10" font-weight="normal" fill="#696969">
                            <tspan x="617" y="1003">11</tspan>
                        </text>
                        <text id="Soleto" font-family=".Roboto, Mono" font-size="10" font-weight="normal" fill="#696969">
                            <tspan x="395" y="779">Soleto</tspan>
                        </text>
                        <text id="Light" font-family=".Roboto, Mono" font-size="10" font-weight="normal" fill="#696969">
                            <tspan x="506" y="779">Light</tspan>
                        </text>
                        <text id="15" font-family=".Roboto, Mono" font-size="10" font-weight="normal" fill="#696969">
                            <tspan x="617" y="779">15</tspan>
                        </text>
                        <text id="Big-Body" font-family="SoletoTrial-Light, Soleto Trial" font-size="16" font-weight="300" line-spacing="20" fill="#696969">
                            <tspan x="24" y="731">Big Body</tspan>
                        </text>
                        <text id="Medium-Body" font-family="SoletoTrial-Light, Soleto Trial" font-size="15" font-weight="300" line-spacing="20" fill="#696969">
                            <tspan x="24" y="790">Medium Body</tspan>
                        </text>
                        <text id="Body" font-family="SoletoTrial-Light, Soleto Trial" font-size="14" font-weight="300" line-spacing="18" fill="#696969">
                            <tspan x="24" y="846">Body</tspan>
                        </text>
                        <text id="Small-Body" font-family="SoletoTrial-Light, Soleto Trial" font-size="13" font-weight="300" line-spacing="20" fill="#696969">
                            <tspan x="24" y="903">Small Body</tspan>
                        </text>
                        <text id="Small-Label" font-family="SoletoTrial-Regular, Soleto Trial" font-size="12" font-weight="normal" fill="#696969">
                            <tspan x="24" y="959">Small Label</tspan>
                        </text>
                        <text id="Tiny" font-family="SoletoTrial-Regular, Soleto Trial" font-size="11" font-weight="normal" fill="#696969">
                            <tspan x="24" y="1014">Tiny</tspan>
                        </text>
                        <text id="Headline-H3" font-family="SoletoTrial-Regular, Soleto Trial" font-size="40" font-weight="normal" line-spacing="50" fill="#696969">
                            <tspan x="24" y="294">Headline H3</tspan>
                        </text>
                        <text id="Headline-H4" font-family="SoletoTrial-Regular, Soleto Trial" font-size="34" font-weight="normal" line-spacing="44" fill="#696969">
                            <tspan x="24" y="363">Headline H4</tspan>
                        </text>
                        <text id="Headline-H5" font-family="SoletoTrial-Regular, Soleto Trial" font-size="28" font-weight="normal" line-spacing="36" fill="#696969">
                            <tspan x="24" y="427">Headline H5</tspan>
                        </text>
                        <text id="Headline-H6" font-family="SoletoTrial-Regular, Soleto Trial" font-size="20" font-weight="normal" line-spacing="26" fill="#696969">
                            <tspan x="24" y="490">Headline H6</tspan>
                        </text>
                        <text id="Display" font-family="SoletoTrial-Light, Soleto Trial" font-size="20" font-weight="300" line-spacing="30" fill="#000000">
                            <tspan x="24" y="550">Display</tspan>
                        </text>
                        <text id="Subhead" font-family="SoletoTrial-Light, Soleto Trial" font-size="18" font-weight="300" line-spacing="30" fill="#000000">
                            <tspan x="24" y="610">Subhead</tspan>
                        </text>
                        <text id="Title" font-family="SoletoTrial-Medium, Soleto Trial" font-size="17" font-weight="400" line-spacing="30" fill="#696969">
                            <tspan x="24" y="670">Title</tspan>
                        </text>
                        <text id="Headline-H2" font-family="SoletoTrial-Regular, Soleto Trial" font-size="46" font-weight="normal" line-spacing="58" fill="#696969">
                            <tspan x="24" y="218">Headline H2</tspan>
                        </text>
                        <text id="Headline-H1" font-family="SoletoTrial-Medium, Soleto Trial" font-size="52" font-weight="400" line-spacing="66" fill="#696969" text-anchor="bottom">
                            <tspan x="24" y="135">Headline H1</tspan>
                        </text>
                        <rect id="Rectangle-9" stroke="#000000" opacity="0.119999997" fill-rule="nonzero" x="0.5" y="0.5" width="702" height="1014"></rect>
                    </g>
                </g>
            </g>
        </g>
    </g>
</svg>