<?xml version="1.0" encoding="UTF-8"?>
<svg width="113px" height="28px" viewBox="0 0 113 28" version="1.1" xmlns="http://www.w3.org/2000/svg" xmlns:xlink="http://www.w3.org/1999/xlink">
    <!-- Generator: Sketch 50.2 (55047) - http://www.bohemiancoding.com/sketch -->
    <title>Logo</title>
    <desc>Created with Sketch.</desc>
    <defs></defs>
    <g id="Symbols" stroke="none" stroke-width="1" fill="none" fill-rule="evenodd">
        <g id="Header" transform="translate(-40.000000, -22.000000)" fill="#FF4D00">
            <g id="Logo">
                <g transform="translate(40.000000, 22.000000)">
                    <path d="M43.2515116,27.5107074 C43.6874274,27.5107074 43.9049432,27.2799284 43.9049432,26.81896 L43.9049432,24.3991705 C43.9049432,23.9382021 43.6874274,23.7077179 43.2515116,23.7077179 L34.1845221,23.7068337 C35.0569432,21.4957179 40.6401432,16.1120547 42.5606484,13.0444337 C43.2742063,11.9049811 43.6364379,11.0248968 43.6364379,10.4507495 C43.6364379,9.78493895 43.3169432,8.29917053 41.0622063,8.29917053 L30.4169011,8.29917053 C29.9818695,8.29917053 29.7637642,8.52994947 29.7637642,8.99091789 L29.7637642,11.3732758 C29.7637642,11.8339495 29.9818695,12.0647284 30.4169011,12.0647284 L38.5262905,12.0644337 C38.1189642,12.8507916 32.7391326,18.5937389 30.7458274,22.0159284 C30.2217853,22.9154653 29.4970274,24.34376 29.4970274,25.43576 C29.4970274,26.81896 30.3163958,27.5107074 31.9560168,27.5107074 L43.2515116,27.5107074 Z M66.7665011,14.9463705 C66.7665011,13.4452758 65.8304168,11.21736 63.03248,11.21736 C61.9826274,11.21736 59.2401011,11.6255705 58.8133221,15.8299916 L65.9598063,15.8299916 C66.4974063,15.8299916 66.7665011,15.5361389 66.7665011,14.9463705 Z M66.6129432,19.3264547 L58.6208589,19.3264547 C58.6208589,21.8726863 60.3792589,24.1294863 63.2314274,24.1294863 C64.9730274,24.1294863 66.5363116,23.5276337 67.9192168,22.3230442 C68.3819537,21.8603074 68.7155958,22.3858232 68.7265011,22.4002653 C68.7265011,22.4002653 70.0763958,24.3110442 70.2629642,24.5710021 C70.3115958,24.6552968 70.3787958,24.8592547 70.0710905,25.1666653 C68.25168,26.9860758 65.9338695,27.8947495 63.1161853,27.8947495 C57.3033853,27.8947495 54.3179958,23.1474232 54.3179958,17.7513811 C54.3179958,11.2698232 58.4711326,7.64603368 63.1934063,7.64603368 C67.2584168,7.64603368 70.8011537,10.7499074 70.8011537,15.0616126 C70.8011537,17.9046442 69.4041011,19.3264547 66.6129432,19.3264547 Z M103.835848,11.87256 C104.271764,11.87256 104.48928,11.6417811 104.48928,11.1808126 L104.48928,8.98531789 C104.48928,8.52434947 104.271764,8.29917053 103.835848,8.29917053 L99.1483537,8.29917053 L99.1483537,3.80914947 C99.1483537,3.37411789 98.9178695,3.15601263 98.4571958,3.15601263 L95.4600168,3.15601263 C94.9987537,3.15601263 94.7682695,3.37411789 94.7682695,3.80914947 L94.7682695,8.29917053 L92.2709642,8.29917053 C91.8359326,8.29917053 91.6178274,8.52434947 91.6178274,8.98531789 L91.6178274,11.1808126 C91.6178274,11.6417811 91.8359326,11.87256 92.2709642,11.87256 L94.7682695,11.8722653 L94.7682695,21.0939916 C94.7682695,23.8382863 95.79248,25.3458653 96.3050274,25.9350442 C96.8169853,26.5245179 98.1206063,27.8246021 100.762038,27.8178232 C103.116985,27.8116337 105.055764,26.5112547 105.87248,25.6659495 C106.194627,25.3323074 106.139806,25.1416126 105.963554,24.9120126 C105.914038,24.8471705 104.450964,22.93816 104.450964,22.93816 C104.236101,22.6404758 103.865322,22.6578653 103.643975,22.8612337 C103.118164,23.2942021 101.998164,24.2550442 100.483806,23.6920968 C99.3826695,23.2827074 99.1483537,22.0542442 99.1483537,21.1323074 L99.1483537,11.87256 L103.835848,11.87256 Z M73.7594274,26.8572758 C73.7594274,27.2931916 73.9899116,27.5107074 74.45088,27.5107074 L77.4480589,27.5107074 C77.9093221,27.5107074 78.1398063,27.2931916 78.1398063,26.8572758 L78.1398063,12.3721389 C79.0346274,11.7643916 81.8322695,10.8212337 83.8656589,12.0166863 C85.0991326,12.7423284 85.5642274,14.7194232 85.5550905,17.0210232 L85.5547958,26.8572758 C85.5547958,27.2931916 85.7855747,27.5107074 86.2462484,27.5107074 L89.2437221,27.5107074 C89.7043958,27.5107074 89.9354695,27.2931916 89.9354695,26.8572758 L89.9354695,16.7136126 C89.9354695,10.7198442 87.1941221,7.69142316 81.7129011,7.64603368 C79.0579116,7.62392842 76.1170274,8.64224421 74.5664168,9.98978105 C74.0317642,10.4545811 73.7597221,11.0145811 73.7597221,11.6803916 L73.7594274,26.8572758 Z M50.4371958,8.29917053 L47.4400168,8.29917053 C46.9790484,8.29917053 46.7485642,8.51727579 46.7485642,8.95260211 L46.7485642,26.8572758 C46.7485642,27.2931916 46.9790484,27.5107074 47.4400168,27.5107074 L50.4371958,27.5107074 C50.8981642,27.5107074 51.1289432,27.2931916 51.1289432,26.8572758 L51.1289432,8.95260211 C51.1289432,8.51727579 50.8981642,8.29917053 50.4371958,8.29917053 Z M25.4243537,8.29917053 L22.4271747,8.29917053 C21.9662063,8.29917053 21.7357221,8.51727579 21.7357221,8.95260211 L21.7357221,26.8572758 C21.7357221,27.2931916 21.9662063,27.5107074 22.4271747,27.5107074 L25.4243537,27.5107074 C25.8853221,27.5107074 26.1158063,27.2931916 26.1158063,26.8572758 L26.1158063,8.95260211 C26.1158063,8.51727579 25.8853221,8.29917053 25.4243537,8.29917053 Z M48.9387537,-2.94736842e-05 C47.4745011,-2.94736842e-05 46.2875958,1.18687579 46.2875958,2.65142316 C46.2875958,4.11538105 47.4745011,5.30228632 48.9387537,5.30228632 C50.4027116,5.30228632 51.5899116,4.11538105 51.5899116,2.65142316 C51.5899116,1.18687579 50.4027116,-2.94736842e-05 48.9387537,-2.94736842e-05 Z M23.9256168,-2.94736842e-05 C22.4613642,-2.94736842e-05 21.2744589,1.18687579 21.2744589,2.65142316 C21.2744589,4.11538105 22.4613642,5.30228632 23.9256168,5.30228632 C25.3898695,5.30228632 26.5767747,4.11538105 26.5767747,2.65142316 C26.5767747,1.18687579 25.3898695,-2.94736842e-05 23.9256168,-2.94736842e-05 Z M7.41092211,26.7037179 C2.34675368,20.7323495 0.0351326316,9.07138105 0.0103747368,8.93256 C-0.0400252632,8.64961263 0.0849431579,8.29917053 0.610164211,8.29917053 L3.87614316,8.29917053 C4.20860632,8.29917053 4.41934316,8.46481263 4.49066947,8.79874947 C5.80313263,14.9233811 8.32224842,20.7880547 9.52418526,22.4388758 C10.7261221,20.7880547 13.2449432,14.9233811 14.5577011,8.79874947 C14.6290274,8.46481263 14.8397642,8.29917053 15.1722274,8.29917053 L18.4382063,8.29917053 C18.9634274,8.29917053 19.0883958,8.64961263 19.0379958,8.93256 C19.0135326,9.07138105 16.7016168,20.7323495 11.6374484,26.7037179 C11.0730274,27.3692337 10.3989642,27.7025811 9.52389053,27.7025811 C8.64940632,27.7025811 7.97534316,27.3692337 7.41092211,26.7037179 Z" id="Fill-1"></path>
                    <path d="M109.729053,25.7437011 L110.096884,25.7437011 C110.245137,25.7437011 110.356253,25.7207116 110.430232,25.6750274 C110.504505,25.6287537 110.541642,25.5497642 110.541642,25.4371747 L110.541642,25.3911958 C110.541642,25.2585642 110.507158,25.1677853 110.437895,25.1191537 C110.368926,25.0708168 110.275495,25.0463537 110.158189,25.0463537 L109.729053,25.0463537 L109.729053,25.7437011 Z M110.587326,26.8242063 L110.127832,26.0272379 L109.729053,26.0272379 L109.729053,26.8242063 L109.415158,26.8242063 L109.415158,24.77048 L110.196505,24.77048 C110.406063,24.77048 110.569642,24.8202905 110.686947,24.9199116 C110.804253,25.0195326 110.863495,25.1716168 110.863495,25.3758695 L110.863495,25.4371747 C110.863495,25.5854274 110.828716,25.7027326 110.759747,25.78968 C110.691074,25.8766274 110.594989,25.93528 110.472379,25.9659326 L110.978147,26.8242063 L110.587326,26.8242063 Z M110.111916,23.8385221 C109.012253,23.8385221 108.121263,24.7292168 108.121263,25.8279958 C108.121263,26.9270695 109.012253,27.8174695 110.111916,27.8174695 C111.211284,27.8174695 112.102568,26.9270695 112.102568,25.8279958 C112.102568,24.7292168 111.211284,23.8385221 110.111916,23.8385221 Z M111.736211,25.8279958 C111.736211,26.72488 111.009684,27.4511116 110.111916,27.4511116 C109.214147,27.4511116 108.487621,26.72488 108.487621,25.8279958 C108.487621,24.9311116 109.214147,24.2042905 110.111916,24.2042905 C111.009684,24.2042905 111.736211,24.9311116 111.736211,25.8279958 Z" id="Fill-4"></path>
                </g>
            </g>
        </g>
    </g>
</svg>